<?xml version="1.0" encoding="utf-8"?>
<svg version="1.2" baseProfile="tiny-ps" viewBox="0 0 300 300" xmlns:xlink="http://www.w3.org/1999/xlink" xmlns="http://www.w3.org/2000/svg">
  <title>kaakkolaeu</title>
  <g>
    <g fill="#a68577" transform="matrix(.1 0 0 -.1 0 300)">
      <path d="M0 1500V0h3000v3000H0V1500z" />
    </g>
    <g fill="#ae3f29" transform="matrix(.1 0 0 -.1 0 300)">
      <path d="M0 1500V0h3000v3000H0V1500zm1406 1261-17-16 13 35 12 35 4-19 4-18-16-17zm55-55c-17-36-33-66-36-66-6 0 10 39 40 102 31 64 27 35-4-36zm-64 12-5-13-1 19c-1 11 2 17 5 13 3-3 4-12 1-19zm143-18c-6-12-14-19-17-17-2 3 1 15 7 27s14 19 17 17c2-3-1-15-7-27zm-695-130 6-10h-9c-5 0-17 10-28 21l-19 22 22-12c12-6 25-16 28-21zm523-35 22-6v-15c0-8 3-13 8-12 4 1 33-4 64-11l57-12 21 11c12 6 24 9 27 6s18 3 33 14c16 11 33 20 39 20h12l-11-20-11-20h-31l5-12 4-13-56-11-56-12 55-1 54-1-10-10-11-11-74-1c-80-1-139 8-139 23v9l63-5c70-6 67 0-6 10l-48 6-9 22-9 22v-22l-1-23h-9c-5 0-11 10-13 23l-3 22-17-30-17-30-1 46c0 50 6 61 29 55 9-2 26-7 39-11zm-234-67c-1-24-5-51-9-60-4-10-5-25-1-33l5-15h-8c-4 0-8-7-8-15s5-15 10-15h9l-6-25-6-25h10c5 0 9-4 7-9-1-5 3-11 8-12l10-4 20 40 19 40 6-25 7-25-13-15-13-15 2-45 2-45-14-15-14-15-5 13c-2 6-8 12-14 12h-10l5-62c3-35 9-76 13-93l7-30-16 14c-9 7-21 30-27 51l-10 38 6 87 7 87-11 7-12 7-2 34c-3 59 26 210 41 210 3 0 5-19 5-42zm186-38c0-5-5-10-11-10h-10l6 10c3 6 8 10 11 10 2 0 4-4 4-10zm260-40c-33-11-115-11-165-1l-40 9h230l-25-8zm-25-44-60-22-39 11c-22 6-41 15-43 20l-3 10 103 2 102 1-60-22zm135 0c0-2-26-13-59-25-32-12-64-28-71-36l-12-15h9c5 0 13 4 19 9 5 6 26 17 46 25l37 16-5-15-6-15-8 5-8 5-26-31c-14-17-26-36-26-44 0-7-7-15-15-19l-15-5v22c0 12-5 29-11 37l-10 15 5-45c3-25 3-39 0-32-3 6-10 12-15 12h-10l3-32 3-31-14-5-13-4 5 38c3 22 9 54 13 72l6 33 31 16c51 26 147 58 147 49zm-257-46 42-20 13-20 12-20-15-30c-8-16-19-31-25-35l-10-6 6 30 6 31-11 13c-6 8-9 16-7 18s-6 12-19 21l-22 17 18-37c11-20 19-47 19-59v-23h-11c-5 0-8 4-5 8 7 12-6 28-39 43l-30 14-3 23-4 24 19 13c23 18 16 18 66-5zm-96-49-4-16-11 28-12 29 7 11 6 10 9-23c5-13 7-31 5-39zm-826 16-12-12 7 18c3 10 9 15 12 12s0-11-7-18zm1219 14c0-9-31-22-93-41l-27-9 6 10c11 19 68 49 92 49h22v-9zm-688-18c10-9 18-23 18-31v-15l-23 21-23 22-7-7-7-6v33h12c6 0 20-7 30-17zm255-5-5-13-1 19c-1 11 2 17 5 13 3-3 4-12 1-19zm703 18c0-2-7-7-16-10l-15-6 6 10c6 10 25 14 25 6zm-978-75 9 14-6-24-7-24 11 7 11 7v-11c0-12-27-80-32-80-2 0-3 33-3 73-1 39 1 61 3 48l4-24 10 14zm878-74v-32l-10 15c-5 8-10 25-10 38v23l10-6 10-6v-32zm-378-32c-2-16-7-34-12-39l-8-8 14-34c8-18 14-46 14-62v-28l-12-12c-7-7-20-12-30-12h-18l-6 25-6 25 11 32 11 32-6 59-7 59 29-4 29-3-3-30zm-197 5-20-7-17 9c-26 13-22 15 20 10l37-5-20-7zm390 10c-3-5-14-10-23-10h-16l20-15 19-14-17-1h-18v-22l29 5 29 6 18-20 19-21-18-13-17-12-44 14-44 15-33 35-34 36 22-12c12-6 26-11 31-11h10l-5 19-5 19 29 5c15 2 34 5 41 6l13 1-6-10zm-461-45 25-25h71v15c0 16 12 20 23 8l7-6-10-12-10-12 25 5 25 4v-15c0-9-14-32-31-51l-30-35-15 6c-18 7-18 28 2 58l16 24-26-12c-14-7-26-15-26-19 0-5-4-8-10-8-5 0-10 7-10 15v16l-20-11-20-11-12 28c-7 15-17 31-22 34l-9 7 7 11c11 17 23 13 50-14zm529 8c-7-2-21-2-30 0l-18 5h60l-12-5zm-154-58c17-20 31-42 31-50v-15h-13c-7 0-28 15-46 34l-34 35 6 15c9 24 22 20 56-19zm-192-72 4-10-21-6c-22-6-23-5-14 18l6 16 11-4c6-2 12-8 14-14zm153-3 11-20-26 2-25 2v12c0 28 25 31 40 4zm1001 3 14-18-17 14c-17 13-22 21-14 21 2 0 10-8 17-17zm40-50 14-18-17 14c-17 13-22 21-14 21 2 0 10-8 17-17zm-1331-66c0-2-15-16-32-33l-33-29 29 33c28 30 36 37 36 29zm291-24 14-18-17 14c-10 7-18 15-18 17 0 8 8 3 21-13zm148-17c-3-3-11 5-18 17l-13 22 18-17c10-10 16-20 13-22zm-379-6c-6-11-13-20-16-20-2 0 0 9 6 20s13 20 16 20c2 0 0-9-6-20zm280 5 12-15h-10c-5 0-12 7-16 15-3 8-4 15-2 15s9-7 16-15zm160-42c0-7-39 17-46 28l-6 11 26-17c14-10 26-19 26-22zm40-9c0-2-7-4-15-4s-15 4-15 10v9l15-5c8-4 15-8 15-10zm-677-1c-7-2-19-2-25 0l-13 5h50l-12-5zm353-30c-3-4-13-8-21-9l-15-2 6 9c3 5 12 9 21 9h16l-7-7zm-679-35-5-13-1 19c-1 11 2 17 5 13 3-3 4-12 1-19zm853-146v-23l-8 5c-4 2-9 19-10 38l-2 33 10-15c5-8 10-25 10-38zm-974-81 31-19 17-37c10-20 15-39 12-42-2-3-11 11-20 30l-14 35-28 18-27 18-46 7-46 6 45 2 45 1 31-19zm1665 12-45-4-30-22c-17-11-34-26-38-31-4-6-10-8-13-5-3 4 10 20 30 38l36 31 52-2 52-1-44-4zm-1831-28c13-14 21-25 18-25-2 0-15 11-28 25s-21 25-18 25c2 0 15-11 28-25zm1703-72c-7-40-13-57-19-50-7 7 7 77 16 77h7l-4-27zM751 997l54-48-75 60c-41 33-97 84-125 113l-50 53 71-65c39-36 95-87 125-113zm1678 127c-22-27-232-197-228-185 3 9 227 199 238 200 2 1-2-6-10-15zM856 898l29-33-32 29c-31 28-38 36-30 36 2 0 16-15 33-32z" />
    </g>
    <g fill="#7a4f42" transform="matrix(.1 0 0 -.1 0 300)">
      <path d="M0 1500V0h3000v3000H0V1500zm1704 1401 5-8-24 5c-14 2-25 6-25 8 0 8 39 4 44-5zm-270-56-6-15h22l-15-24c-9-13-22-52-29-87l-13-64-5 32-4 32 12 48c7 26 10 52 7 57l-6 9 10-6 11-7 5 20c3 11 8 20 11 20s3-7 0-15zm239-12c-7-2-19-2-25 0l-13 5h50l-12-5zm-82-35c-11-18-38-69-61-113-22-44-38-69-35-55 7 25 79 164 98 188 18 22 17 13-2-20zm-488-24c-3-8-9-14-13-14-12 0-20 28-13 46l6 17 13-18 13-17-6-14zm163 18-18-17 13 22c7 12 15 20 18 17 3-2-3-12-13-22zm874 18v-9l18 5 17 6-18-12-17-11-22 15-22 16h44v-10zm-1217-62-10-23-12 23-12 22 12 22 12 23 10-23 10-22-10-22zm421 15c-8-25-17-49-20-52-9-8 6 60 18 82 16 30 16 19 2-30zm356 39c0-4-13-13-30-19l-30-11v7c0 4 5 12 12 19 13 13 48 16 48 4zm630-12 11-20-12-22-11-21-10 17-10 17 6 25c8 29 12 30 26 4zm-834-15c-22-34-19-45 4-16 28 32 25 23-11-40-17-30-28-46-25-36 9 29-2 19-24-20l-21-38 7 25c7 28 51 118 66 138 18 22 21 13 4-13zm554 10c0-2-10-9-22-15l-23-11 19 15c21 17 26 19 26 11zm-243-11c-3-3-12-4-19-1l-13 5 19 1c11 1 17-2 13-5zm-89-54-26-20-15-39c-9-22-21-42-26-45l-10-6 9 31c5 17 21 46 35 65l26 34h32l-25-20zm530-65v-40l-8 40c-5 22-9 45-10 50-5 22 2 29 10 10 5-11 8-38 8-60zm-148 33c-50-14-88-45-121-96l-29-46v16c0 22 66 105 98 122l27 15h30l30-1-35-10zm75-12c10-7 19-20 20-27l3-14-39 2-40 2 5-7c2-4-10-23-26-42-17-19-27-28-23-20s17 25 28 38l20 22h-10c-18 0-46-39-63-91l-17-50-7 16c-3 9-6 28-6 41v25l12-7 11-7-6 17-7 17 9-5 9-6 16 25c9 14 33 34 54 44 40 22 31 28-15 10-37-14-73-47-89-84l-13-30-1 24v24l38 37 39 36 34 11c46 15 43 15 64-1zM845 2570l6-10h-9c-5 0-17 10-28 21l-19 22 22-12c12-6 25-16 28-21zm1012 24c-3-3-12-4-19-1l-13 5 19 1c11 1 17-2 13-5zm-42-32c-3-3-11 0-18 7l-12 12 18-7c10-3 15-9 12-12zm519-13c14-11 26-25 26-31v-11l-22 20c-13 12-37 24-55 28l-31 6-42-11-42-11-23-23-22-22-7-37-7-37 11-42 12-42 34-34c19-19 33-37 30-39-8-8-43 20-66 54l-24 35-4 63-4 62 15 30c9 16 24 36 33 44l18 14-8-12-7-13h8c4 1 19 7 33 15l25 14 46 1h46l27-21zm-966-14 22-6v-15c0-8 3-13 8-12 4 1 33-4 64-11l57-12 21 11c12 6 24 9 27 6s18 3 33 14c16 11 33 20 39 20h12l-11-20-11-20h-31l5-12 4-13-56-11-56-12 55-1 54-1-10-10-11-11-74-1c-80-1-139 8-139 23v9l63-5c70-6 67 0-6 10l-48 6-9 22-9 22v-22l-1-23h-9c-5 0-11 10-13 23l-3 22-17-30-17-30-1 46c0 50 6 61 29 55 9-2 26-7 39-11zm651-106 1-47-21-23-20-24 17 28 17 28-7 47c-3 26-8 61-11 77l-5 30 14-35 14-35 1-46zm206 99c-11-6-30-20-42-31l-23-20v11c0 13 58 52 75 52 6 0 1-6-10-12zm-1750-76-7-27-10 18-10 18 7 27 7 27 10-18 10-18-7-27zm659 16c-1-24-5-51-9-60-4-10-5-25-1-33l5-15h-8c-4 0-8-7-8-15s5-15 10-15h9l-6-25-6-25h10c5 0 9-4 7-9-1-5 3-11 8-12l10-4 20 40 19 40 6-25 7-25-13-15-13-15 2-45 2-45-14-15-14-15-5 13c-2 6-8 12-14 12h-10l5-62c3-35 9-76 13-93l7-30-16 14c-9 7-21 30-27 51l-10 38 6 87 7 87-11 7-12 7-2 34c-3 59 26 210 41 210 3 0 5-19 5-42zm1430-13c-8-19-20-19-28 1l-6 15 12 22 11 21 8-22 8-22-5-15zm-653-86 9-93-10-35-9-34 12-21c6-12 10-25 8-31-2-5-5-17-6-25-2-8-4-15-5-15s-3-12-4-26c-3-29-36-89-49-89h-8l8 23c8 23 10 75 4 197-4 72 6 219 15 249l5 14 11-11 11-11 8-92zm-591 61c0-5-5-10-11-10h-10l6 10c3 6 8 10 11 10 2 0 4-4 4-10zm260-40c-33-11-115-11-165-1l-40 9h230l-25-8zm-25-44-60-22-39 11c-22 6-41 15-43 20l-3 10 103 2 102 1-60-22zm-845-8v-22l-11 11-11 11 6 11c11 17 16 13 16-11zm1614 7c-4-8-10-15-15-15s-9 7-9 15v15h29l-5-15zm-634 1c0-2-26-13-59-25-32-12-64-28-71-36l-12-15h9c5 0 13 4 19 9 5 6 26 17 46 25l37 16-5-15-6-15-8 5-8 5-26-31c-14-17-26-36-26-44 0-7-7-15-15-19l-15-5v22c0 12-5 29-11 37l-10 15 5-45c3-25 3-39 0-32-3 6-10 12-15 12h-10l3-32 3-31-14-5-13-4 5 38c3 22 9 54 13 72l6 33 31 16c51 26 147 58 147 49zm-257-46 42-20 13-20 12-20-15-30c-8-16-19-31-25-35l-10-6 6 30 6 31-11 13c-6 8-9 16-7 18s-6 12-19 21l-22 17 18-37c11-20 19-47 19-59v-23h-10c-5 0-9 3-9 8 3 19-2 30-17 36l-15 6 7-11 6-11-18 4-19 3v12c0 6-3 15-7 19-5 4-8 16-8 27v20l18 13c21 17 15 17 65-6zm-96-49-4-16-11 28-12 29 7 11 6 10 9-23c5-13 7-31 5-39zm1153 45c0-2-8-10-17-17l-18-14 14 18c13 16 21 21 21 13zm-1979-29-12-12 7 18c3 10 9 15 12 12s0-11-7-18zm1219 13c0-5-4-10-8-10-5 0-15-11-22-25s-15-23-18-20c-3 2 1 11 8 20 15 17 7 19-21 5-10-6-19-17-19-24v-14l-17-7-18-6 13 12c6 7 12 17 12 22v9l-16-6-15-6 7 11c11 19 68 49 92 49h22v-10zm-688-17c10-9 18-23 18-31v-15l-23 21-23 22-7-7-7-6v33h12c6 0 20-7 30-17zm255-5-5-13-1 19c-1 11 2 17 5 13 3-3 4-12 1-19zm530 5c1-10 4-36 9-57l7-39-12 7-12 8 4 11c2 7 0 25-4 41-5 16-6 33-3 37 8 13 10 11 11-8zm178-59 1-69-19-38-20-38 7-54c3-29 9-61 13-71l6-17-11 7-12 7-1-33-1-33-5 13c-2 6-11 12-18 12h-13l-5-22c-4-13-12-31-19-41l-13-18-1 62-1 61 14-28 13-29-4 68-3 67 12-17 12-16-5-21-5-21 6 6c4 3 9 24 12 48l5 42-11 22-12 22 15-13 16-13 6 45 7 44-6 28-7 29 11-15c14-20 18-13 27 45l7 50-18-15c-10-8-26-28-37-45l-18-30v54l27 21c14 11 31 19 37 17l11-4v-69zm-225 62c0-2-7-7-16-10l-15-6 6 10c6 10 25 14 25 6zm7-38-5-13-1 19c-1 11 2 17 5 13 3-3 4-12 1-19zm-765-27 9 14-6-24-7-24 11 7 11 7v-11c0-12-27-80-32-80-2 0-3 33-3 73-1 39 1 61 3 48l4-24 10 14zm788-16v-15h-32l12 15c7 8 14 15 16 15s4-7 4-15zm-1366-41 6-15-11-21-11-21-10 17-9 16 6 20c8 24 21 26 29 4zm1393-16v-28h-39l12 15 12 15-5 13-5 14h25v-29zm767 17c6-17-2-45-14-45-4 0-10 7-14 15-6 17 2 45 14 45 4 0 10-7 14-15zm-664-30v-24l-15 5-16 6 11 13 10 12-7 6-6 7h23v-25zm-418-20c-2-16-7-34-12-39l-8-8 14-34c8-18 14-46 14-62v-28l-12-12c-7-7-20-12-30-12h-18l-6 25-6 25 11 32 11 32-6 59-7 59 29-4 29-3-3-30zm-197 5-20-7-17 9c-26 13-22 15 20 10l37-5-20-7zm390 10c-3-5-14-10-23-10h-16l20-15 19-14-17-1h-18v-22l29 5 29 6 18-20 19-21-18-13-17-12-44 14-44 15-33 35-34 36 22-12c12-6 26-11 31-11h10l-5 19-5 19 29 5c15 2 34 5 41 6l13 1-6-10zm730-20 6-10h-10c-6 0-11 5-11 10 0 6 2 10 4 10 3 0 8-4 11-10zm-1859-11 6-11-18-16-18-17 12 16 12 15-12 12-12 12h11c7 0 15-5 19-11zm668-14 25-25h71v15c0 16 12 20 23 8l7-6-10-12-10-12 25 5 25 4v-15c0-9-14-32-31-51l-30-35-15 6c-18 7-18 28 2 58l16 24-26-12c-14-7-26-15-26-19 0-5-4-8-10-8-5 0-10 7-10 15v16l-20-11-20-11-12 28c-7 15-17 31-22 34l-9 7 7 11c11 17 23 13 50-14zm529 8c-7-2-21-2-30 0l-18 5h60l-12-5zm207-30-12-18 6 18c3 10 6 24 7 30l1 12 4-12c3-7 0-20-6-30zm470 12 13-15-17 6c-9 3-16 10-16 15 0 13 6 11 20-6zm-831-40c17-20 31-42 31-50v-15h-13c-7 0-28 15-46 34l-34 35 6 15c9 24 22 20 56-19zm389-17c17-17 15-43-5-59l-16-14 11 22c15 28 15 28-4 47-8 9-12 16-7 16s14-5 21-12zm-158-12c0-2-8-10-17-17l-18-14 14 18c13 16 21 21 21 13zm-423-43 4-10-21-6c-22-6-23-5-14 18l6 16 11-4c6-2 12-8 14-14zm153-3 11-20-26 2-25 2v12c0 28 25 31 40 4zm1001 3 14-18-17 14c-17 13-22 21-14 21 2 0 10-8 17-17zm-521-38 12-14-4-18-3-18-22-10-22-9-5-21c-3-11-6-30-6-42v-23h-9c-11 0-21 25-21 56v24h20l-5 31-6 31 12 14c15 18 43 18 59-1zm561-12 14-18-17 14c-17 13-22 21-14 21 2 0 10-8 17-17zm-869-114 27-28 38-6c56-10 62-13 22-14l-35-1-45 29c-24 15-55 41-69 57l-25 28 30-19c17-10 42-31 57-46zm-462 48c0-2-15-16-32-33l-33-29 29 33c28 30 36 37 36 29zm804-13 16-15v-23c0-31-8-36-35-24l-23 10 5 22 5 21-21-24-21-23v14c0 20 29 58 45 58 7 0 21-7 29-16zm-513-11 14-18-17 14c-10 7-18 15-18 17 0 8 8 3 21-13zm54-19 26-26-17 4c-9 2-23 13-32 26-19 30-9 28 23-4zm-285-4c-6-11-13-20-16-20-2 0 0 9 6 20s13 20 16 20c2 0 0-9-6-20zm-145-30c-3-5-14-10-23-9h-17l20 9c27 11 27 11 20 0zm-45-14c0-2-11-6-25-8l-24-5 5 8c5 9 44 13 44 5zm765-37 10-10-33 12c-17 6-32 13-32 16 0 7 43-8 55-18zm229 5c18-17 19-24 10-48l-6-16-9 6-9 5v-10c0-5-16-19-35-31l-36-22 18-28c10-15 31-47 47-71l29-43-10-15c-5-8-16-17-24-19l-14-5 13 14c18 19 15 43-9 65-12 10-30 38-41 62l-19 42-67 1c-37 0-61 3-54 6l12 5-6 9-5 9h8c4 0 23-4 42-10l34-10 43 11 44 11-6 9c-3 5-12 9-20 9h-15l7-12 7-11-15 6-16 5-9-9-9-9-32 9-32 10-57-5-58-4 30 10 30 11 57-6 56-6 7 11c3 6 10 8 15 5l8-5 5 20 5 20-18-10c-10-5-21-15-24-22l-6-13-6 13c-3 6-13 12-23 12-9 0-26 7-37 15l-19 15 38-13 39-13 55 28c65 33 67 33 87 12zm-648-1c-3-4-13-8-21-9l-15-2 6 9c3 5 12 9 21 9h16l-7-7zm397-21c15-9 27-20 27-24 0-13-27-9-42 6-8 7-28 17-46 21-17 3-35 11-38 16l-6 10 39-7c21-3 50-14 66-22zm-1076-14-5-13-1 19c-1 11 2 17 5 13 3-3 4-12 1-19zm1347-74c20-19 20-48 2-64l-15-12-17 10-17 9-3 29-3 28 12 8c17 11 24 10 41-8zm-500-36c3-13 6-34 6-47v-24l-6 6c-4 3-10 24-14 47l-7 40h7c4 0 10-10 14-22zm96-58c0-6 9-15 20-22 21-13 27-28 10-28-10 0-80 88-80 101 0 4 11-3 25-17s25-29 25-34zm-550 46c0-2-8-10-17-17l-18-14 14 18c13 16 21 21 21 13zm570-21c13-14 21-25 18-25-2 0-15 11-28 25s-21 25-18 25c2 0 15-11 28-25zm254-1c3-8 11-14 18-14s19-9 26-20 9-20 5-20c-9 1-52 38-72 63l-14 17 16-6c8-3 18-12 21-20zm482-28c-14-25-30-47-35-51-5-3 5 19 22 49 18 29 34 52 36 50s-8-23-23-48zm-1075 26c-5-10-17-24-25-32-9-7-16-19-16-27v-14l-9 5-9 6-6-16c-4-9-9-14-12-11-9 9 24 64 52 86 33 26 38 26 25 3zm140-28 28-39 12-47 13-46-14-56-13-57-11 4c-15 5-19 33-11 65l6 26 7-11 7-11-1 46c0 26-2 56-2 66l-2 19-47 44-48 44 24-4 24-4 28-39zm-381-28c0-2-7-9-15-16l-15-13 6 17c5 14 24 23 24 12zm668-26 16-25-29 25c-17 14-32 27-35 29s3 2 14 0l19-4 15-25zm237 7 10-10-30 7c-16 4-34 12-40 17l-10 10 30-7c17-3 35-11 40-17zm-1409-6 31-19 16-35 17-35-1-29-1-28-4 15c-3 8-12 34-20 57l-15 41-27 18-27 18-45 7-45 6 45 2 45 1 31-19zm1249 9c11-5 16-9 11-9l-9-1 19-22 19-23-25 22c-14 12-36 26-50 32l-25 10h20c11 0 29-4 40-9zm420 1-50-6-32-20-32-19-11-29c-5-17-10-48-11-71l-1-41-9 27-10 27 11 39 10 40 35 31 36 31 57-1 57-2-50-6zm-1835-26c13-14 21-25 18-25-2 0-15 11-28 25s-21 25-18 25c2 0 15-11 28-25zm1506-10 19-14 37-1h37l15-22c9-12 16-29 16-37v-14l-7 6-6 7-15-12-14-12-41 46c-23 25-51 51-62 57s-15 11-9 11c5 0 19-7 30-15zm-646 2c0-2-17-19-37-38l-38-34 34 38c33 34 41 42 41 34zm-79-53-21-27v-96l33-38c17-21 24-32 15-24l-18 13v-8c0-5-9 5-20 21l-20 30v102l21 27c11 14 23 26 25 26 3 0-4-12-15-26zm625 5c12-4 38-22 57-39l36-31 17-44 17-45-17-24-16-25 10-6 10-6v-69l-20-20c-11-11-24-20-30-20h-10v-49l-19-13c-10-7-18-15-17-18 0-3-8-25-18-48l-19-43-8 12-7 12 11 26c6 14 21 37 34 52l23 25v62l-37 28c-21 15-43 35-50 44-12 15-35 102-28 108 4 5 45-83 45-96 0-5 22-27 48-49l48-41 17 10 17 9v82l-16 18-16 18-16-5-17-6 18 12c10 6 22 21 27 33l9 22v-33l1-33 10 6c6 3 10 18 10 31v26l-57 56c-31 32-47 45-35 31 13-14 26-39 31-56l9-30-9-14-9-14v36l-15 5-15 6 6 23 6 22-28 22-27 21h24l-6 10-6 10h-60l6 10 6 10 27-6c15-4 37-10 48-15zm135-36c5-13 16-26 25-30l17-6 21 13 21 13-13-15c-7-9-23-18-36-20l-23-5-18 34c-10 18-21 33-25 33s-7 7-7 15v15l15-12c8-7 18-23 23-35zm106 5-5-13-1 19c-1 11 2 17 5 13 3-3 4-12 1-19zm-1051 4c-2-4-26-23-53-42l-48-34 20 24c25 29 95 74 81 52zm191-24-5-13-1 19c-1 11 2 17 5 13 3-3 4-12 1-19zm471-21 32-33 6-31 6-31-9-16-8-15v80l-38 34c-20 19-37 36-37 39 0 14 19 3 48-27zm-17-34 14-18-18 14-18 14-30-34c-17-19-39-54-50-78l-21-43 7-37 7-36-13 12-12 12 1 30 1 29 20 41c22 43 78 111 91 111 4 0 14-8 21-17zm319-44c0-9-8-25-17-36-10-10-14-13-9-6l8 13-4 40-4 41 13-17c7-10 13-25 13-35zm17 9-5-13v50l5-12c2-7 2-19 0-25zm-360-26c-9-10-20-29-26-42l-10-25v19c-1 11 9 35 22 53l22 33 4-11c1-5-4-18-12-27zm-214-7c-3-9-8-14-10-11-3 3-2 9 2 15 9 16 15 13 8-4zM769 982l46-44-80 65c-44 36-102 89-130 118l-50 53 84-75c46-41 104-94 130-117zm1251 178v-10h-45l15 10c19 13 30 13 30 0zm-541-114-2-61-7 55c-4 30-13 69-19 85l-11 30 20-24 20-23-1-62zm956 84c-8-13-223-193-245-205l-15-8 17 18c16 18 240 203 246 204 2 1 0-4-3-9zm-616-100v-15l-19 35c-11 19-19 42-19 50v15l19-35c11-19 19-42 19-50zm96-10c-2-4-1-20 4-36l8-29-8-25-7-25-3 50c-3 66-3 68-14 85l-9 15 17-14c9-7 15-17 12-21zm-330-53 15-6v-34l-21 19c-12 10-28 33-35 51-20 47-16 54 6 12 11-20 26-39 35-42zm256 17c14-7 34-25 44-40l17-27-5-48c-3-27-11-59-18-71l-12-23-4 12-4 12-14-5-14-6-34 11-34 12-24 25-24 26 49-26 49-26h58l5 15 6 15-21 35c-11 19-18 35-16 35 3 0 14-15 25-32l20-33v42l-20 26c-11 14-20 28-20 32v6l10-6 10-6v11c0 16-44 29-82 26l-33-3 25 4 25 5-30 13-30 14 35-6c19-3 47-12 61-19zm-484-83c-6-22-14-38-18-35l-7 4 5 23c5 19 21 47 28 47 1 0-3-18-8-39zm-435-76 10-20-9 10c-5 6-32 35-58 65l-49 55 48-45c26-25 52-54 58-65zm736 5-1-35-4 39-4 40-10-15-11-14 5 15 4 15-14 13c-7 7-13 19-13 25l1 12 24-30 25-30-2-35zm472 30c-17-22-37-43-43-47-11-6 4 15 47 65 33 37 30 25-4-18zm-728-81c22-11 38-23 35-26-13-12-97 50-97 71l1 11 10-18c5-9 28-26 51-38zm378-23c0-2-8-10-17-17l-18-14 14 18c13 16 21 21 21 13zm-409-23 14-18-17 14c-17 13-22 21-14 21 2 0 10-8 17-17zm81-30 10-13h-9c-5 0-24 14-43 31l-35 30 33-18c19-10 38-24 44-30zm214 11c14-9 30-26 36-38l11-21-39 35c-21 19-41 36-43 38-2 1-1 2 3 2s18-7 32-16zm61-9v-14l-9 5-8 5 5 10c9 13 12 11 12-6zm-69-41c7-13 9-24 6-24-7 0-43 43-44 52v7l14-5c7-3 18-16 24-30zm-833-71c-7-28-21-30-30-4l-6 18 12 29 11 29 10-25 9-25-6-22zm1378-6-10-22-11 22-12 22 12 27 12 26 9-27 9-27-9-21zm-841-5-4-59 28-33 28-32 40-19 41-18h-20c-11-1-35 8-53 19l-32 20-20 32-20 33v115h15l-3-58zm347 30 12-28-10-25-10-24 1 37 1 37-13 16-12 15h10c5 0 15-13 21-28zm-94-42 6-36-21-24-21-25 16 27 16 27-10 38c-6 21-11 43-11 48l1 10 8-15c5-8 12-31 16-50zm-75-100c0-17-19-40-33-40-5 0-1 7 8 16l17 17-6 16c-2 9-7 27-10 41l-6 25 14-30c9-16 15-37 16-45zm-63-92-5-13v50l5-12c2-7 2-19 0-25zm-7-22c0-2-8-10-17-17l-18-14 14 18c13 16 21 21 21 13zm-180-165 10-20-6-15c-13-34-40-1-29 35 8 24 12 24 25 0zm455-39-7-27-13 25-13 25 10 19 10 19 10-17 10-17-7-27zm-232-95-5-9-10 10-10 10 7 12 8 12 8-13c4-7 5-17 2-22zm497 1829c0-7 7-19 15-26l15-12 15 6c8 3 15 11 15 18v13l-9-14-9-13-21 21-21 21v-14zm90-211-23-25h36l13 18c29 38 9 44-26 7zm57 4 7-23 4 13c2 7-1 18-6 23l-11 11 6-24zm-45-319c12-16 25-30 30-30h7l-6 18c-9 26-24 42-40 42h-14l23-30z" />
    </g>
    <g fill="#5c3025" transform="matrix(.1 0 0 -.1 0 300)">
      <path d="M0 1500V0h3000v3000H0V1500zm1735 1399 9-9h-60l-20 15-19 14 40-6c22-3 44-10 50-14zm-189-9c-61-24-82-43-113-103l-24-49-6-49-6-50-8 13c-5 7-9 27-10 43l-1 30-14-35-14-35 4 25c2 14 10 49 18 79l13 54 28 30 27 29 17-13 17-14-7 11-7 12 48 20c26 12 56 21 67 21h20l-49-19zm-126-16c-17-15-40-45-52-68l-22-41-5-66-6-66-16 33-16 32 14 53 14 54 51 47c27 27 55 48 60 48s-5-12-22-26zm206 1c-50-18-82-41-114-85l-26-35 38 35 37 35-6-17c-4-10-11-18-16-18s-20-23-35-51l-25-51 10 7 11 6-10-26c-21-56-8-47 23 15 17 36 38 71 45 78 6 7 12 20 12 27 0 8 10 21 22 29l22 16 61-2 60-2-57-3-58-4-24-32c-13-18-41-72-62-122-21-49-41-94-46-100l-8-9-1 29-1 30-8-25-8-25-1 35-1 35-10-15-10-15-1 15v15l-9-20-9-20v27l-1 27 40 84c22 46 49 92 59 101 21 19 93 45 126 45h20l-39-14zm87-2c-7-2-19-2-25 0l-13 5h50l-12-5zm-343-7c0-2-8-10-17-17l-18-14 14 18c13 16 21 21 21 13zm-76-48-19-21 19 7 19 6-11-13c-6-7-16-24-22-38l-10-24 6 34 6 34-11-7c-6-4-16-25-22-47l-12-40-8 13-8 12 16 29c16 31 57 77 69 77 4 0-1-10-12-22zm-191-44c-3-8-9-14-13-14-12 0-20 28-13 46l6 17 13-18 13-17-6-14zm625 38 13-9-42-12-42-13-39-39-39-40-16-45c-8-25-18-43-21-40-2 3 2 25 11 48 8 24 18 57 22 74l6 31 26 24 27 24-22-29-22-29v-42l30 47 29 46 23 5c38 7 42 7 56-1zm412-2v-9l18 5 17 6-18-12-17-11-22 15-22 16h44v-10zm-1217-62-10-23-12 23-12 22 12 22 12 23 10-23 10-22-10-22zm1407 42 11-20-12-22-11-21-10 17-10 17 6 25c8 29 12 30 26 4zm-481-6-16-15-67-4-68-4-25-16c-14-9-27-14-30-12-10 11 54 35 112 42 33 4 67 11 75 16s19 9 25 9h9l-15-16zm201 7c0-5-12-17-27-26l-28-18 24 27c26 28 31 31 31 17zm60 5c0-2-7-7-16-10l-15-6 6 10c6 10 25 14 25 6zm-663-48-5-13-1 19c-1 11 2 17 5 13 3-3 4-12 1-19zm308-10c-44-16-55-27-82-85-14-29-32-58-41-65l-15-13 16 32c10 18 17 39 17 47s7 21 15 30c9 8 14 19 13 23-4 11 63 43 87 42l20-1-30-10zm493-83v-40l-8 40c-5 22-9 45-10 50-5 22 2 29 10 10 5-11 8-38 8-60zm-624 40c-4-8-8-15-10-15s-4 7-4 15 4 15 10 15h9l-5-15zm-397-27-5-13v50l5-12c2-7 2-19 0-25zm873 20c-50-14-88-45-121-96l-29-46v16c0 22 66 105 98 122l27 15h30l30-1-35-10zm75-12c10-7 19-20 20-27l3-14-39 2-40 2 5-7c2-4-10-23-26-42-17-19-27-28-23-20s17 25 28 38l20 22h-10c-18 0-46-39-63-91l-17-50-7 16c-3 9-6 28-6 41v25l12-7 11-7-6 17-7 17 9-5 9-6 16 25c9 14 33 34 54 44 40 22 31 28-15 10-37-14-73-47-89-84l-13-30-1 22v22l30 35 31 35 42 15c54 18 50 18 72 2zm-978-38-5-13-1 19c-1 11 2 17 5 13 3-3 4-12 1-19zm-335-86c-7-2-10-7-7-12l5-8-20 5-20 5 6 9 5 9h-10c-5 0-16 13-24 30l-15 30 46-32 46-32-12-4zm952 10c-5-7-41 22-54 42l-13 21 35-30c19-17 34-31 32-33zm-1090 22 6-15-10 6c-6 3-10 10-10 16 0 14 7 11 14-7zm1133 10c-3-3-12-4-19-1l-13 5 19 1c11 1 17-2 13-5zm380 0c-3-3-12-4-19-1l-13 5 19 1c11 1 17-2 13-5zm-1547-17c0-2-10-12-22-23l-23-19 19 23c18 21 26 27 26 19zm115-61 10-8-20 10c-11 6-29 21-40 34l-20 23 30-25c17-14 35-29 40-34zm926 6-12-4-20 18c-10 9-19 21-19 26v9l32-22 31-23-12-4zm603 27c14-11 26-25 26-31v-11l-22 20c-13 12-37 24-55 28l-31 6-42-11-42-11-23-23-22-22-7-37-7-37 11-42 12-42 34-34c19-19 33-37 30-39-9-9-45 22-70 61l-26 40v117l14 28c8 15 23 34 32 42l18 14-8-12c-9-17-5-16 30 2l29 15h92l27-21zm-938-15c11-8 41-20 67-28l48-14 33 9c19 5 54 20 78 34l43 24 24-36 23-36-16 7c-9 3-23 9-31 12l-16 6 3-13c4-20 19-29 52-29h30l-11-11c-5-5-32-14-59-18l-49-9 40-2c22-1 51-5 65-10l25-7-164-2c-90 0-167-3-169-6-3-3 60-5 139-6s155-4 169-8l25-8-60-13c-33-8-62-14-65-15-3 0-28-13-57-28s-62-27-73-27c-26 0-81 28-97 49l-11 16-8-7-7-8 12-14c6-7 35-24 63-36l51-22 36 17c55 27 142 55 165 54h21l-20-10-20-9 40 5 40 6-15-10-15-11h45l-12-25-11-25h-13c-7 0-23-12-35-27l-22-28 6 18 7 17-20-10c-11-6-20-13-20-16s5-2 11 1l10 7-13-21c-12-19-22-25-31-18-2 1-10-3-18-9s-29-11-46-12l-33-2-1 17-1 18-7-30-6-30-19-3-18-4 6 34 6 33-11-22c-6-12-18-24-26-27l-14-6 6 23 6 22-10-14-9-15-36 28-36 27-6 27c-9 44-12 49-13 22-1-14-6-32-12-40l-11-15 6 17 5 17-8 6c-5 2-12 30-16 61-4 32-11 67-15 78l-9 21 2-58c1-32 5-61 9-63 5-3 8-14 8-26v-20l-14 11c-8 6-19 10-26 9l-13-3-2 13-3 13 5-11 5-10 9 6c12 7 12 56-1 88l-10 26h25l-13 8-13 8-3 30c-2 16-7 46-11 68l-8 38 14 9 14 9 60-7 60-6 21-13zm-601-53-2-16-14 1c-18 2-59 15-59 20 0 2 5 14 11 28l12 25 27-21 28-20-3-17zm354 11c-5-13-7-28-3-33l5-9h-20l4-12c2-7 6-37 9-65l6-53h-21l15-15c19-20 23-19 29 6l6 21 13-4c7-3 15-12 16-22l4-17-15-17-16-17 3-47 4-48-14-11-13-11-10 6-10 6-6-21-7-22 12-61c7-33 17-69 22-78l9-18h-8c-4 0-18 11-31 25l-24 24 7 11 6 10h-21v94l-14-19-14-20 5 27c3 15 11 33 19 39l14 11v89l-17 25-16 25 13 87 13 87 20 38 21 37 7-12 7-11-9-25zm870-63 1-47-21-23-20-24 17 28 17 28-7 47c-3 26-8 61-11 77l-5 30 14-35 14-35 1-46zm206 99c-11-6-30-20-42-31l-23-20v11c0 13 58 52 75 52 6 0 1-6-10-12zm-1565-39c15-28 5-23-15 7l-17 26 11-6c6-4 16-16 21-27zm-185-37-7-27-10 18-10 18 7 27 7 27 10-18 10-18-7-27zm2089 3c-8-19-20-19-28 1l-6 15 12 22 11 21 8-22 8-22-5-15zm-653-86 9-93-10-35-9-34 12-21c6-12 10-25 8-31-2-5-5-17-6-25-2-8-4-15-5-15s-3-12-4-26c-3-29-36-89-49-89h-8l8 23c8 23 10 75 4 197-4 72 6 219 15 249l5 14 11-11 11-11 8-92zm-1343-29c-7-11-17-20-22-20h-9l18 20c10 11 20 20 22 20s-2-9-9-20zm142-1v-21l-15 12-16 13 13 8c18 12 18 12 18-12zm1614 6c-4-8-10-15-15-15s-9 7-9 15v15h29l-5-15zm141-5 18-20h-9c-5 0-15 9-22 20s-11 20-9 20 12-9 22-20zm-1804-27 14-18-20 15c-11 8-22 16-24 17-2 2 0 3 6 3s17-8 24-17zm1729 13c0-2-7-7-16-10l-15-6 6 10c6 10 25 14 25 6zm-1835-38c29-31 18-31-17 0-15 13-24 32-15 32 1 0 16-14 32-32zm1866 15 14-18-17 14c-10 7-18 15-18 17 0 8 8 3 21-13zm99-28 24-40-17 13c-9 8-19 23-23 34l-6 20-26-24-25-23 23 32c13 18 24 32 25 30 1-1 12-20 25-42zm-2014-17c-9-12-16-19-16-15 0 11 24 47 28 42 2-2-3-14-12-27zm1502-77-1-99-14-28c-7-16-11-21-8-11 3 11 8 31 11 45l7 27-14-13-14-13v-52c0-29 3-67 7-85l8-33-10 6-10 6-1-33-1-33-5 13c-2 6-10 12-16 12h-12l-18-45c-11-25-24-45-29-45h-10l8 18c5 9 8 40 7 67l-2 50 15-30 14-30-4 68-3 67 12-17 12-16-5-21-5-21 6 6c4 3 9 24 12 48l5 42-11 22-12 22 15-13 16-13 6 45 7 44-6 28-7 29 11-15c14-20 18-13 27 45l7 50-18-15c-10-8-26-28-37-45l-18-30v53l31 26 31 26 8-5 9-6-1-98zm-961 77c13-12 23-28 23-37v-15l-29 28-28 27v-51h8c5 0 9-7 9-15s5-15 10-15h11l-11-21-12-21 6-26c3-15 3-21 0-14l-6 12-9-6-9-5 5-27 5-27-10 25-11 25 4 40c2 22 0 53-4 69l-9 29 6 24 6 23h11c6 0 21-10 34-22zm780 5c1-10 4-36 9-57l7-39-12 7-12 8 4 11c2 7 0 25-4 41-5 16-6 33-3 37 8 13 10 11 11-8zm555-7-5-19 19-15 19-14-15 4c-8 3-23 18-32 34l-17 30h36l-5-20zm-1752-1v-16l19 11c11 5 28 10 38 10l18-1-30-14c-16-7-25-14-20-14 6-1 15-9 22-19l11-19h-28v13c0 7-6 14-12 17l-13 4-20-16-20-16 14 17 13 18-5 20-5 20h9c5 0 9-7 9-15zm1150 11c0-2-7-7-16-10l-15-6 6 10c6 10 25 14 25 6zm561-16 19-11v-19c0-10-5-22-10-25l-11-7 7 26 6 25-34 10-33 9 18 1c10 1 27-4 38-9zm74 0c-3-5-11-10-16-10h-10l6 10c3 6 11 10 16 10h10l-6-10zm-628-22-5-13-1 19c-1 11 2 17 5 13 3-3 4-12 1-19zm-1187 8c0-3-4-8-10-11l-10-6v10c0 6 5 11 10 11 6 0 10-2 10-4zm1718-26c-1-16-3-30-4-30 0 0-9 10-20 22l-19 23 18-14 17-13v21c0 11 2 21 5 21s4-13 3-30zm-1523-10c10-11 16-20 13-20s-13 9-23 20-16 20-13 20 13-9 23-20zm1442 2c-9-10-23-33-31-52s-15-29-16-22c0 23 43 92 58 92 3 0-2-8-11-18zm-427-17v-15h-32l12 15c7 8 14 15 16 15s4-7 4-15zm620-10c-7-8-18-15-24-15l-11 1 19 14c25 19 32 19 16 0zm-1986-31 6-15-11-21-11-21-10 17-9 16 6 20c8 24 21 26 29 4zm1392-13c-1-27-14-43-29-34l-8 5 12 14 11 14-5 13-5 14h26l-2-26zm768 14c6-17-2-45-14-45-4 0-10 7-14 15-6 17 2 45 14 45 4 0 10-7 14-15zm-1803-47c31-43 17-34-21 15-19 23-26 36-17 28 10-8 27-27 38-43zm1139 17v-24l-15 5-16 6 11 13 10 12-7 6-6 7h23v-25zm304-7c-16-18-32-37-36-42-5-6-8-7-8-3 0 8 60 77 68 77 3 0-7-15-24-32zm27-11-34-32 29 37c15 20 30 35 33 32 3-2-10-19-28-37zm-1505 1 29-33-32 29c-31 28-38 36-30 36 2 0 16-15 33-32zm529 22-6-10 33-1h33l-23-11-22-11-28 13-27 12 20 9c27 10 27 10 20-1zm231-42c-3-60 2-88 16-88h10l-6 15c-8 22 2 18 14-5l11-20-13 2-13 3-3-25-3-25 10 15 10 15 18-11c10-6 19-18 21-27l3-16-32 9-32 10-14-20-14-20h-34l-12 19-12 20-31-9-30-9v8c0 4 6 16 14 26l14 19 15-12 15-13 6 17c3 8 6 26 6 39s4 26 9 29l9 6-10 36c-5 20-7 42-4 50l5 14h60l-3-52zm186 30-27-18h17c9 0 18-6 21-12l5-13 13 17 14 18 30-8 30-8 3-19 4-18-28 7-28 7 18-20 19-21-22-24-23-24-29 8-28 8 16-26 17-27-23 20-24 20 6-33 7-34-17-16-16-17-11 19c-6 11-22 33-36 50-37 44-56 77-64 109l-6 27h9c5 0 24-12 41-26 17-15 33-24 36-21s-6 13-20 22c-14 10-26 21-26 26v9l28-5c15-3 22-3 15 1l-12 5 5 13 5 13 27-4 27-5-12 9-13 9h80l-28-18zm-400-22 47 1-5-8-4-8 31 9 31 9-6-15-6-14 23 11 22 12-13-16-13-16 11-21 12-22-13-12-12-11 7 20 7 20-8-10c-5-5-29-36-52-68l-44-57-14 12-15 12 5 26 6 26-8 13-8 13-7-17-6-16-11 6-10 7 5 14 6 15-17-10-17-9-23 24c-13 14-23 29-23 35 0 5-4 9-9 9s-11 9-14 19l-5 19 10 10 10 10 41-11c23-6 63-11 89-11zm1155-1 8-8-12 7-13 7v-13c0-8 5-19 12-26l12-12h-24l-10 26c-6 14-10 27-10 29 0 6 29-1 37-10zm-1881-6 6-11-18-16-18-17 12 16 12 15-12 12-12 12h11c7 0 15-5 19-11zm1980-96c27-38 64-86 83-108s7-12-25 21c-71 74-100 111-96 124 3 15-7 12-45-11-19-12-32-24-29-27s14 2 24 11c10 10 24 17 32 17h12l-13-17-14-17 12 7 11 7 17-6 16-7-5-13-5-14h24l-14-9-13-9 13-4 14-5-25-13c-14-8-31-15-38-16l-14-2 6 14 6 15-12-7-11-7 5 21 6 21-14-6-14-5 6 16 6 17-12-3c-7-2-14 2-17 8l-4 12 33 23c18 13 35 27 36 31 6 13 8 11 58-59zm-2023 26 42-32-19 7-19 6 13-15 12-15h-37l15-10 15-10-10-1c-5-1-13-1-17 0l-7 1 6-17 6-16-13 8-13 8 5-15 6-15h-25l4 21 5 21-9-11c-4-6-15-11-23-11h-15v47l13-5 13-5-6 10-6 10h24l-6 7-7 6 16 18 15 17-10 7-11 6-9-23c-8-21-50-73-129-157l-34-36 59 76c33 42 70 92 82 112s25 37 27 37 23-14 47-31zm1897-60c33-50 60-96 60-103 0-6-12 9-25 33-14 24-41 65-59 90-40 56-49 71-41 71 3 0 32-41 65-91zm-1816 54c-40-62-84-137-84-147 0-5-3-7-6-4-9 10 89 178 104 178 2 0-4-12-14-27zm1394-5c17-17 15-43-5-59l-16-14 11 22c15 28 15 28-4 47-8 9-12 16-7 16s14-5 21-12zm-1031-30-5-13-1 19c-1 11 2 17 5 13 3-3 4-12 1-19zm873 18c0-2-8-10-17-17l-18-14 14 18c13 16 21 21 21 13zm-810-36c-6-11-13-20-16-20-2 0 0 9 6 20s13 20 16 20c2 0 0-9-6-20zm13-25c-3-9-8-14-10-11-3 3-2 9 2 15 9 16 15 13 8-4zm-420-2c-7-2-21-2-30 0l-18 5h60l-12-5zm1760 0c-7-2-19-2-25 0l-13 5h50l-12-5zm-333-18 12-14-4-18-3-18-22-10-22-9-5-21c-3-11-6-30-6-42v-23h-9c-11 0-21 25-21 56v24h20l-5 31-6 31 12 14c15 18 43 18 59-1zm-1133-25v-31l-10 10-9 9 7 21c9 29 12 26 12-9zm930-22-5-13-1 19c-1 11 2 17 5 13 3-3 4-12 1-19zm-194-9c23-12 61-39 83-60l42-37 46-7c26-4 45-10 42-13s26-19 64-37l70-32 58 29 58 29 16-6c22-9 29-31 22-62l-7-25-8 14-9 13v-12c0-6-16-21-35-33l-36-22 18-28c10-15 31-46 47-70l30-42-10-16c-6-9-17-18-25-20l-14-4 13 13c19 20 14 41-19 77l-29 33-10-6-10-6v10c0 5 4 11 9 13l9 3-9 23-8 22-73 1c-40 1-65 3-55 6l17 5-5 9-6 9h8c4 0 23-4 42-10l34-10 43 11 44 11-6 9c-3 5-12 9-20 9h-15l7-12 7-11-15 6-16 5-9-9-9-9-37 11-37 10-33-9-32-9-20 7-20 7 42 7 41 7 45-6 45-7 7 11c3 6 10 9 15 6l8-5 5 20 5 20-18-10c-10-5-21-15-24-22l-6-13-6 13c-3 6-12 12-20 12s-37 11-64 25l-49 25-23-1-23-1 26-8c14-4 39-16 54-26l29-19-43-7-43-7-38 19c-20 10-52 32-71 47l-33 28 6-17 7-17-22 5c-12 2-30 14-40 26l-19 23 6-17c8-27 0-22-24 15l-21 32 6-25 7-25-27 30c-15 17-24 23-20 15l6-15-15 19c-9 11-16 29-16 40l1 21 19-24 20-23v43l24-18c14-10 30-27 36-39 6-11 18-21 25-21h14l-9 17c-5 9-16 23-25 30l-16 13 12 8 12 7-29 16c-44 23-19 19 29-5zm-334-16c-14-16-38-47-53-70s-37-50-48-60l-21-18 7 13c9 15 6 15-37-3-20-8-48-15-62-15h-26l6 10c3 6 15 10 25 10 11 0 44 9 75 21l56 21 25 40c30 47 26 63-5 19-12-16-38-40-57-52l-36-22-36-3-36-3-13-17c-7-10-13-15-13-11s-16 1-35-7-35-13-35-11c0 9 117 65 148 71l36 7 41 38c34 32 93 67 114 69 3 0-6-12-20-27zm501 2c0-8-4-15-10-15-5 0-10 7-10 15s5 15 10 15c6 0 10-7 10-15zm445-5c10-11 16-20 13-20s-13 9-23 20-16 20-13 20 13-9 23-20zm-847-31-10-29-18 10-18 10-12-15c-7-8-15-13-19-11-4 3-17-11-30-30l-24-35-8 12-8 13 15 28c8 15 19 28 25 28h10l-7 12-7 11 10-6 11-7 12 15c7 8 16 13 20 10 5-3 11-2 13 2 3 5 16 9 30 9l25 2-10-29zm666 15 16-15v-23c0-31-8-36-35-24l-23 10 5 22 5 21-21-24-21-23v14c0 20 29 58 45 58 7 0 21-7 29-16zm-1384 3c0-2-12-14-27-28l-28-24 24 28c23 25 31 32 31 24zm173-17c-5-19-23-39-23-25 0 9 20 45 24 45 2 0 2-9-1-20zm569-12-12-12v10c0 6 3 14 7 17 3 4 9 5 12 2 2-3-1-11-7-17zm92 6c9-8 16-20 16-25v-9l-25 16c-25 16-33 34-16 34 5 0 17-7 25-16zm791-14c10-11 16-20 13-20s-13 9-23 20-16 20-13 20 13-9 23-20zm-805-80v-10h-80v20h80v-10zm-703-42-5-13v50l5-12c2-7 2-19 0-25zm268 16 17-7-14-8c-7-5-26-9-43-9l-30 1 19 14c22 17 27 18 51 9zm423-15c5-11 12-20 17-20l10 1 1-20c1-11 7-27 14-35 7-9 11-17 8-20-2-2-19 18-37 46l-32 50-20-6-19-6 6 15 6 16h39l7-21zm-421-33c4-3-8-6-25-6s-33 4-36 8l-5 8 30-2c17-1 33-5 36-8zm365-8-5-20-8 13c-10 16-11 15-38-39l-22-43-15 11-14 12-14-32-13-33-6 14-6 14-7-23-7-24-7 13-8 12-16-31c-9-17-21-34-27-37l-11-7 17 31 16 32-6 9-6 10h21l6 28c7 27 50 82 66 82h8l-6-27-6-28 18 25c10 14 23 28 28 32l11 8-10 1c-17 1 29 16 51 16l21 1-5-20zm162-46c20-41 20-49 0-49h-15l-22 41c-12 23-22 49-23 58l-1 17 23-17c12-9 29-32 38-50zm65-18c5-6 11-20 13-30l4-19 12 3c13 2 13 1 17-35l2-22-9 6-10 6 7-24 7-24-6 6c-4 4-16 29-26 55-20 50-28 48-10-3l10-28-17 23c-22 31-50 115-45 132l5 14 18-25c11-13 23-29 28-35zm485 40c20-19 20-48 2-64l-15-12-17 10-17 9-3 29-3 28 12 8c17 11 24 10 41-8zm-1363-26-5-33-4 18c-3 17 3 47 11 47 2 0 1-15-2-32zm439-25-22-38 21 19 21 19v-11c0-18-57-78-95-101l-35-20v29h14c7 0 20 7 27 17l14 16-24-12-23-13 4 14c3 7 13 15 23 17 23 4 46 26 38 35-4 3-15-1-25-11-19-17-22-15-12 12 7 16 72 65 87 65h9l-22-37zm552-26c5-10 7-21 5-24-3-2-10 5-17 16-6 12-15 21-20 21h-10l12-21c7-12 29-37 48-55l35-33-29 5c-16 3-38 11-48 19l-20 13-24 52c-13 29-24 56-24 60v9l41-22c22-12 45-30 51-40zm731-9c-29-56-33-70-20-65 4 1 15-13 24-31l16-34-9-25-9-26-20-3-20-3 19 15c23 17 13 19-16 3l-20-11 6 10 6 11-20 6-20 6v34l18 11c9 6 25 10 35 8l18-2-11 14-12 13-32-23c-17-13-42-29-56-35l-25-12 30 23c54 40 94 88 117 138 13 28 24 46 26 41s-9-33-25-63zm-1980-85 41-43h-11c-27 0-111 112-127 170l-7 25 31-55c17-30 50-74 73-97zm1012 107c14-13 36-46 50-74l25-50v-33c0-18-5-53-12-78l-12-45h-26v25c0 13 7 49 15 81l14 56-15 29-15 30-9-6-10-6 11-20c17-33 5-31-13 2-10 17-14 27-8 24 5-3 11-1 14 3l5 9-34 33c-19 19-35 37-35 41 0 14 30 3 55-21zm-99 6c-1-7-14-28-29-45-15-18-27-39-27-47s-17-32-37-55l-37-41-7-41-6-42-2 41-1 40 12 12c6 6 9 14 6 18-10 9-38-52-38-81 0-14 6-41 14-60l14-33 27-18c14-9 31-26 37-38l11-21-22 19c-11 11-21 15-21 11 0-5-14 4-30 20l-30 29-10 37-10 38 9 43 10 43 30 25 30 25 16 40 16 40 32 27c36 31 46 34 43 14zm584-16c0-6 6-10 13-10s18-9 25-20 9-20 5-20c-10 1-52 38-73 64l-15 19 23-12c12-6 22-16 22-21zm-809-63-24-22 8 15c14 26 28 41 33 35 3-3-5-16-17-28zm212 9c-10-13-20-22-22-20-4 4 29 44 36 44 2 0-4-11-14-24zm426-27 15-24-25 23c-14 12-31 22-37 22-7 0-12 4-12 10v9l22-8c12-4 29-19 37-32zm-742 25c-3-3-12-4-19-1l-13 5 19 1c11 1 17-2 13-5zm806-10c15-3 25-9 22-12s3-15 12-26l18-21-25 22c-14 12-41 28-60 37-34 15-29 15 33 0zm172-7 10-10-30 7c-16 4-34 12-40 17l-10 10 30-7c17-3 35-11 40-17zm323 3 13-6h-63l-64 1-28-18-28-19-15-36-15-36 4-61 5-60-13 30c-7 17-13 47-14 68v38l13 32c17 39 35 55 84 73l38 13 35-6c19-3 41-9 48-13zm-1720-15 30-25 17-42 16-42-7-36-7-35-12 62-12 63-19 21c-10 12-34 28-52 36l-34 14-46-6-47-5 20 9c11 5 43 10 72 10l51 1 30-25zm351 6c-13-11-26-17-28-15-5 5 30 33 43 34 4 0-2-9-15-19zm435-62-17-18 6-22c3-11 3-18 0-15-4 3-12 1-20-5l-13-11v14c0 7 9 31 20 53 11 21 18 40 16 42-6 7-28-27-43-64l-14-38 6 40c4 22 14 51 22 64l16 25 19-24 19-23-17-18zm56 7c0-5-7-1-15 10-8 10-14 24-14 29 0 6 6 1 14-9 8-11 15-24 15-30zm486 29 19-14 37-1h37l15-22c9-12 16-29 16-37v-14l-7 6-6 7-15-12-14-12-41 46c-23 25-51 51-62 57s-15 11-9 11c5 0 19-7 30-15zm-1535-5 19-11v-19c0-19-14-33-38-36l-12-2 6 9c3 5 9 7 14 4s12-1 15 5l7 11-13 15-12 15-12-5-12-4v14c0 17 11 18 38 4zm498 8c-2-2-22-19-43-38l-39-35 12 22c12 23 49 53 65 53 5 0 7-1 5-2zm-453-242 51-62 90-72c121-96 257-242 241-258-3-2-31 27-63 66l-58 71-108 90-108 90-49 62c-53 66-152 223-152 240 0 6 23-29 52-77s75-115 104-150zm674 214c-6-11-13-20-16-20-2 0 0 9 6 20s13 20 16 20c2 0 0-9-6-20zm851-57c5-13 16-26 25-30l17-6 21 13 21 13-13-15c-7-9-23-18-36-20l-23-5-18 34c-10 18-23 33-28 33h-10l6 7 7 6-21 15c-25 18-34 10-19-17 6-12 8-21 6-21-3 0-10 9-16 19l-10 20 6 15 6 16 35-27c19-15 39-37 44-50zm-1724 20-5-18v70l5-17c2-10 2-26 0-35zm1477 18c-2-3-12 3-22 13l-17 18 22-13c12-7 20-15 17-18zm823-8-5-18v60l5-12c2-7 2-21 0-30zm-736 17 35-10 41-35 41-35 17-45 18-45-17-24-16-25 10-6 10-6v-69l-20-20c-11-11-24-20-30-20h-10v-49l-19-13c-10-7-19-17-19-23-1-5-9-27-18-48l-17-38-8 12-7 12 11 26c6 14 21 37 34 52l23 25v63l-40 28-40 28-14 30c-7 17-16 48-20 70l-6 40 25-50c13-27 24-55 25-61 0-6 22-29 48-51l48-41 17 10 17 9v82l-16 18-16 18-16-6-17-5 23 16 22 17 1 22 2 22 7-40 6-40 9 19 8 18-10 27-9 26-12-2-12-3v13c0 7-17 29-37 48l-38 34 23-26c12-14 26-39 31-56l9-30-9-14-9-14v36l-15 5-15 6 6 23 6 22-34 27-33 27 20-7 20-6-15 11c-8 6-27 11-42 11h-28v20h18c9 0 33-5 53-10zm613-102-58-93-51-54c-27-29-92-87-142-128-51-41-119-104-150-140-86-96-127-141-112-118 8 11 16 22 19 25s12 18 20 33c21 42 122 142 230 228 52 41 119 102 148 134l54 59 45 78c25 43 48 77 50 74 2-2-22-46-53-98zm-1370 69c-22-12-61-37-87-55l-47-33v10c0 24 121 101 160 100h15l-41-22zm49-58-8-8 5 42 5 42 3-34 3-34-8-8zm974 49-5-13-1 19c-1 11 2 17 5 13 3-3 4-12 1-19zm-387-41 30-31 6-32 6-32-11-19-11-18 5 25 6 26-10 27-11 27-32 20c-18 11-29 20-24 20 6 0 1 7-10 15l-19 14 22-6c13-3 36-19 53-36zm830-48c-20-58-76-169-85-169-3 0 11 30 29 68 19 37 43 95 53 130l18 63 3-14c2-8-7-43-18-78zM445 1139c14-27 23-49 20-49-15 0-95 194-95 229 0 9 12-17 25-57 14-40 37-96 50-123zm1266 144 14-18-17 14c-10 7-18 15-18 17 0 8 8 3 21-13zm80-20 13-18-14 13c-14 12-39 18-27 6 3-3-7-17-22-30l-28-24-22-51-22-51 10-28c5-16 7-31 4-33-2-3 0-16 7-29l11-23-14 17c-7 9-19 35-27 57l-13 40 28 55c26 52 79 116 95 116 4 0 14-8 21-17zm319-44c0-9-8-25-17-36-10-10-14-13-9-6l8 13-4 40-4 41 13-17c7-10 13-25 13-35zm-1016 29c-4-7-21-32-37-55-33-47-51-51-22-6 28 44 81 99 59 61zm1033-20-5-13v50l5-12c2-7 2-19 0-25zm-907-1c0-7-7-22-15-33l-14-19 11 33c13 34 18 40 18 19zm431-4 14-18-17 14c-17 13-22 21-14 21 2 0 10-8 17-17zm110-29c-12-15-21-33-21-41v-14l-11 6-10 7 5 15c10 24 51 71 54 62 2-5-6-21-17-35zm-251 22c0-3-4-8-10-11l-10-6v10c0 6 5 11 10 11 6 0 10-2 10-4zm43-26c-3-12-8-19-11-16-5 6 5 36 12 36 2 0 2-9-1-20zm-87-62 14-27-1-63-2-63-8 63-8 63-26 46-26 47 22-20c11-10 27-31 35-46zm554 32v-10h-45l15 10c19 13 30 13 30 0zm-190-4c0-2-8-10-17-17l-18-14 14 18c13 16 21 21 21 13zm-735-44c-3-3-11 0-18 7l-12 12 18-7c10-3 15-9 12-12zm355-48c7-19 9-40 7-47l-5-12-1 18c-1 10-11 37-22 60l-22 42 16-13c9-8 21-29 27-48zm-126-7-27-32 8 25c4 14 15 32 24 41l16 16 3-8c2-5-9-24-24-42zm495-27v-15l-19 35c-11 19-19 42-19 50v15l19-35c11-19 19-42 19-50zm-268 21 8 14-1-38-1-38 13-12 13-12-6 11-6 11h24l1-23 2-22 32-40 31-40-4-33-4-34-2 40-1 40-11-15-11-15 4 15 4 14-15 20c-9 10-31 36-49 57l-34 38-4 43-3 43 5-19 6-19 9 14zm26-13-5-13-1 19c-1 11 2 17 5 13 3-3 4-12 1-19zm338-18c-2-4-1-20 4-36l8-29-8-25-7-25-3 50c-3 66-3 68-14 85l-9 15 17-14c9-7 15-17 12-21zm-82-33 28-10 21-29 21-30-7-56-7-57-20-20-20-20 6 15 5 15-35 1-36 1-26 19c-14 11-33 31-41 44l-16 25 30-27c33-30 74-48 110-48h25l5 15 6 15-21 35c-11 19-18 35-16 35 3 0 14-15 25-32l20-33v41l-23 32-24 32-6-7-7-6v11c0 15 13 15 28 0l12-12v11c0 16-37 27-85 25l-40-2-14 9-15 10 45-5 44-5-32 15c-18 8-33 17-33 20 0 4 29-4 93-27zm677 20c0-2-10-12-22-23l-23-19 19 23c18 21 26 27 26 19zm-1058-59-10-10 6 29 6 28 4-19 4-18-10-10zm242-8 7-25-9 15c-5 8-13 26-16 40l-7 25 9-15c5-8 13-26 16-40zm-302 1-17-39-6 10-6 10-6-24c-4-12-7-38-7-55v-33l23-14c12-7 34-16 50-20l27-6v-29l-37 16c-21 8-46 22-55 31l-18 15-1 31-2 31-7-40-7-40-1 30c-1 17 2 47 7 67l9 37 28 31c39 40 46 38 26-9zm-821 12 14-18-17 14c-17 13-22 21-14 21 2 0 10-8 17-17zm1232 0c-7-2-19-2-25 0l-13 5h50l-12-5zm667 4c0-2-17-19-37-38l-38-34 34 38c33 34 41 42 41 34zm-90-81c0-2-8-10-17-17l-18-14 14 18c13 16 21 21 21 13zm-793-38-5-13v50l5-12c2-7 2-19 0-25zm-10-40-5-13-1 19c-1 11 2 17 5 13 3-3 4-12 1-19zm7-34 6-15-10 6c-6 3-10 10-10 16 0 14 7 11 14-7zm-214-29c13-14 21-25 18-25-2 0-15 11-28 25s-21 25-18 25c2 0 15-11 28-25zm78-28 16-18 2-29 2-30h-9c-5 0-9 7-9 15 0 9-12 28-27 42-16 15-21 23-13 18l15-8-30 33-30 33 33-19c18-10 41-27 50-37zm332 50c0-2-10-12-22-23l-23-19 19 23c18 21 26 27 26 19zm-81-77 16-25-41 35c-22 19-49 41-60 48-10 7 1 3 25-10l44-23 16-25zm27 25c-1-8-5-17-8-21-5-4-4 16 1 34 3 9 9-1 7-13zm-68-41c7-13 9-24 6-24-7 0-43 43-44 52v7l14-5c7-3 18-16 24-30zm-833-71c-7-28-21-30-30-4l-6 18 12 29 11 29 10-25 9-25-6-22zm1378-6-10-22-11 22-12 22 12 27 12 26 9-27 9-27-9-21zm-840 0-5-63 26-31 26-31 42-20 43-21-21-1h-21l-34 23-34 22-23 47-23 47 6 45c4 25 11 46 15 46h8l-5-63zm28 21-5-33-4 18c-3 17 3 47 11 47 2 0 1-15-2-32zm320 5 10-26-10-26-9-26-1 41-1 40-12 12-12 12h24l11-27zm-91-59v-22l-21-23-20-24 16 27 16 27-10 38c-6 21-11 43-10 48 1 18 28-49 29-71zm-90-109c-7-8-17-15-22-15h-9l16 16 17 17-7 21c-4 12-8 32-11 46l-4 25 17-47 16-47-13-16zm-53-67-5-13v50l5-12c2-7 2-19 0-25zm-7-22c0-2-8-10-17-17l-18-14 14 18c13 16 21 21 21 13zm-180-165 10-20-6-15c-13-34-40-1-29 35 8 24 12 24 25 0zm455-39-7-27-13 25-13 25 10 19 10 19 10-17 10-17-7-27zm-232-95-5-9-10 10-10 10 7 12 8 12 8-13c4-7 5-17 2-22zm-166 2386-12-26 13-5c6-2 12-10 12-17 0-8 5-17 12-21l11-7-7 12c-4 6-8 29-8 51 0 47-4 49-21 13zm-66 1 1-19 5 13c3 7 2 16-1 19-3 4-6-2-5-13zm46-78-7-17 15-27 14-27v25c0 14-4 34-8 44l-8 20-6-18zm333-70-25-14-10 5-10 6 8-8 7-8-17-20-18-19 50 33c62 40 60 39 49 39-5-1-20-7-34-14zm-45-76-6-10h10c6 0 11 5 11 10 0 6-2 10-4 10-3 0-8-4-11-10zm-852 267v-14h27l-11 14c-6 7-12 13-14 13-1 0-2-6-2-13zm499-424c12-15 47-17 67-4l14 9-46 3-45 4 10-12zm-747-62-5-10 8-5 9-5v14c0 17-3 19-12 6zm1495-115c0-7 7-19 15-26l15-12 15 6c8 3 15 11 15 18v13l-9-14-9-13-21 21-21 21v-14zm-314-96 27-40 31-14c17-8 43-17 58-20l27-6 6 10 6 10h-23c-30 0-86 35-117 71-35 43-45 35-15-11zm97-98c4-6 23-16 42-22l35-11 12 8 13 7-35 7c-19 3-44 10-54 14l-19 8 6-11zm307-17-23-25h36l13 18c29 38 9 44-26 7zm57 4 7-23 4 13c2 7-1 18-6 23l-11 11 6-24zm-750-94c-9-19-15-35-12-35 7 0 37 61 33 66-3 2-12-12-21-31zm-36-179-24-31 28 27c16 15 27 29 24 31-2 3-15-10-28-27zm741-46c12-16 25-30 30-30h7l-6 18c-9 26-24 42-40 42h-14l23-30z" />
    </g>
    <g fill="#39221b" transform="matrix(.1 0 0 -.1 0 300)">
      <path d="M0 1500V0h3000v3000H0V1500zm1756 1407c29-1 49-4 44-5l-11-4 12-14 12-15-25 10-25 9-13-8-13-8 24-5 24-4-30-1c-16-1-49 3-72 7l-42 8-39-17c-22-10-43-24-47-31l-8-14 14 13c7 6 17 12 22 12h8l-7-11-6-11 20 11c11 6 38 11 59 12h38l-20 10-20 9 30-6c17-3 46-8 65-12l35-7-65-6-65-6 85 1c47 1 94 5 105 10l20 8-24-20-24-19-17 4-17 5-70-21-70-21-15-17c-9-10-34-53-57-96-46-87-51-86-21 4 12 34 19 66 17 72-4 14-67-138-67-165v-22l-9 9c-5 6-11 21-14 35l-4 25-2-30-2-30-9 20-9 20v-25l-1-25-21 34-21 34 16 57c9 31 16 70 16 86l-1 29-15-35c-8-19-18-54-21-78l-6-43-7 8c-5 4-11 17-14 28l-5 20 3-39 2-38-13 18c-17 23-16 50 2 120s13 81-10 21l-17-45 4-56 3-56-12 17c-7 9-13 23-13 31v13l-11-7-12-7 7 49c4 27 8 58 10 70 7 37 51 104 69 104h9l-13-17c-7-10 0-6 15 10 15 15 32 27 39 28 68 4 179 6 167 2-8-2-34-11-57-19l-42-15-21-41c-27-51-20-59 11-13l24 35 42 20 43 20h71l-28 24-28 25 43-15c24-8 68-15 98-17zm-440-92-17-26 7-11 7-11-10 6-11 7-6-16-6-15 12 7 11 7-6-17c-4-10-7-38-7-64v-46l-11 11-11 11-1 55-2 55-7-4c-4-3-10-19-13-37l-6-32 10-30 11-30-15 19c-22 28-18 7 5-31l20-33h-13c-7 0-18 5-25 12l-12 12v132l17 24c9 14 25 35 36 48l20 22h39l-16-25zm-216-5 11-21-6-19c-8-26-22-25-30 0l-6 20 6 20c8 25 12 25 25 0zm-170-60c-14-26-26-25-33 1l-6 21 10 27 11 26 14-28 15-27-11-20zm930 40c-19-17-55-37-80-47-56-20-76-38-109-99l-26-47-25-16-25-16 28 33 27 34v46l25 31 26 30 42 10 42 10-54-3-55-3-27-31-27-31 4-18 5-18-35-50-36-50v16c0 9 11 28 25 43l26 28-6 18-6 19 15 35c8 20 19 36 23 35s22 3 38 10c17 7 55 17 85 21 30 5 71 15 90 24 49 21 50 19 10-14zm309 16c15-8 33-22 40-30l13-15-7-11-7-12-24 22-23 22-43 8-43 8-10-10-10-11 20 7 20 7-30-33c-16-18-34-37-39-43l-9-10 8 15c4 8 15 23 23 33l15 17-6 7-7 6-23-19c-12-11-31-26-42-34l-19-15 19 25c10 14 34 38 53 53l35 27h68l28-14zm165-20c6-24-1-56-11-56-3 0-11 8-18 17l-13 17 11 23c13 30 23 29 31-1zm-1129-56c-8-16-15-34-15-40v-11l10 6 10 6v-35c0-19 3-43 6-53l6-18-21 25-21 25 6 15 5 15-9-10c-6-5-12-19-15-30l-5-20-1 32c-1 35 14 77 37 106 22 25 25 21 7-13zm1044-60 8-62 14-9c8-5 21-8 31-6l16 2 31-39c17-21 31-39 31-40s-9-10-21-19l-21-18 7 19 6 20-23 16-22 16h-92l-41-20-40-19-7-23c-3-13-6-43-6-66v-44l17-35 16-35 26-17c14-9 27-22 29-29 2-14-14-16-23-2-9 15-25 12-25-5 0-9 7-29 15-45 9-17 13-30 11-30-9 0-36 58-36 77 0 10-14 45-31 78l-31 60 6 49 5 49 26 39c14 21 30 38 36 38h11l-12-15-12-15 43 19c24 10 51 21 59 24l15 5-47-1-47-1 12-9 12-9-19 6-19 7-21-19c-12-11-34-27-51-37l-30-18 39 34c48 42 76 58 99 59 23 0 22 17-3 30l-20 11-20-11-20-11-10 6-10 6 2-8c4-13-35-73-49-73h-12l-3-42-4-43-16 35-17 35-1-15c0-8 5-32 10-52l11-38-11-40-11-40-20-11c-11-6-23-8-27-5-3 3 1 6 9 6h14l-15 11-15 11 18-6 18-6 7 21 8 20-10 86-9 86 18 34 19 34 40 24 41 25h-15c-36 0-90-52-124-118-10-19-20-32-22-29-10 10 25 76 61 116 21 23 33 41 29 42-23 2 35 18 67 18l36 1 46-35 45-35 5 13c2 6-2 27-9 46l-14 33 6 10 6 10 10-10c6-6 13-38 17-72zm-389 10 15-10h-10c-5 0-17 5-25 10l-15 10h10c6 0 17-5 25-10zm-1005-40c-11-5-27-9-35-9h-15l20 9c11 5 27 9 35 9h15l-20-9zm61-12 19-23-25 20c-14 11-27 21-29 22-2 2 0 3 6 3 5 0 18-10 29-22zm928-58h37l-6-10c-10-16-47-12-82 10l-32 19-17 32-16 32 39-41 40-42h37zm-11 48c4 1 7-3 7-9v-10l18 5 17 6 15-10 15-10h-85l-32 31-33 30 35-17c19-10 38-17 43-16zm-970-53c15-9 27-22 27-27v-9l-10 6-10 6v-19l-30 3c-17 1-36 8-44 15l-15 12 2 39 1 39 26-24c14-13 37-31 53-41zm-108-7c17-14 50-37 75-51 25-15 40-27 34-27-12 0-87 48-129 83l-30 25-30-26-30-27 20 25c11 13 27 30 35 37l15 12 5-13c3-8 19-24 35-38zm947-44 19-21-23-8-23-7 15-3c8-2 32-6 53-10l37-6v-19l-62-1-63-1 53-12c29-8 55-16 58-18 3-3-35-4-83-3s-70 1-48-1 60-7 85-10l44-6-14-8c-8-4-35-10-59-14-43-7-145-45-138-52 2-2 28 5 57 16 30 11 77 22 105 25l50 5-20-8-19-9 27-7 27-6v-12c0-6-7-20-17-30l-16-18h43l-1-27-1-28-5 13-5 13-35-7-36-7 8 14c4 8-5 2-21-12-60-54-127-77-163-55l-14 9 7-11 6-10-16-16-15-16h31l1-12c1-7 1-30-1-51l-2-39 21-14c12-9 21-20 21-25v-10l-9 5-9 6-6-16c-3-9-6-21-6-27v-12l10 15 9 15 18-11c10-6 19-18 21-27l3-17-32 7-32 6-9-16-9-17h-47l-13 16-13 16-28-4-28-5v13c0 6 7 17 15 24l15 12 14-5 14-6 6 37c4 20 6 58 6 85l-1 47 14 6 15 5-5 20-5 19-15-12-15-12-6 11c-4 6-26 16-48 22-23 6-47 18-54 26l-13 15 18-6 18-7-7 12-8 12-19-6-19-6v23l-16-6-15-6 5 9 6 9-15 12-15 12v-23l-17 16-16 17 12 7 11 7-13 40c-8 21-17 76-21 121l-7 82 20 10 20 11h119l12-15 13-15 54-16 55-16 31 6c18 3 35 5 39 3 4-1 14 7 22 18 9 11 16 16 16 12 0-5 12 1 27 13l27 21 9-18c5-10 18-28 29-39zm16 42c15-8 36-23 46-35l19-21h-17c-17 0-76 27-76 34 0 3-3 11-6 20l-6 16h6c4 0 19-6 34-14zm-1048-86v-15l-19 31c-11 18-24 35-30 38-6 4-11 13-11 19l1 12 29-35c16-19 30-42 30-50zm1725 32-39-37 35 41c19 22 36 39 39 37 2-2-13-20-35-41zm-1603 6 26-18-5-20-5-19-19-6-19-6-30 18c-33 19-37 32-17 52l12 14-15-7-15-7 19 15 19 15 11-6c6-3 23-15 38-25zm368 17c0-8 5-15 10-15 6 0 10-4 10-10 0-5-7-10-16-10h-16l13-17 14-17-12 7-12 8-6-24c-7-27 0-102 13-137l9-24 7 27c8 35 22 34 34-3l11-30-19-10-18-10 4-42 4-42 12-8c7-4 10-8 6-9-5-1-11-2-15-3-5-1-14-5-20-9l-13-8-10 6-10 6-2-28c-3-44 2-72 27-163l7-25-26 28c-15 15-31 25-35 23l-7-5v17c0 9-1 37-2 61l-2 43-15-12-15-12v8c0 5 7 23 16 39 9 17 18 44 21 62l4 32-17 36-17 35 8 53c4 28 9 68 11 87 6 50 36 110 55 110 5 0 9-7 9-15zm1077 9c-4-4-17-12-29-18-13-7-23-16-24-21 0-6-5-21-11-34l-10-24-6 17-6 16 10 24c11 24 41 44 68 45l14 1-6-6zm59-33 3-11-6 10c-2 5-9 10-14 10h-8l5-15 6-15h-21l5-15 6-15h-42v21l9-5 9-6 10 29 10 29-11 13-12 13 24-15c14-9 26-21 27-28zm24-9v-38l-37-17-38-17 15 12c22 19 50 65 50 83 0 8 2 15 5 15s5-17 5-38zm-1840-42c-13-25-17-25-30-1l-10 20 12 26 12 26 13-25 14-26-11-20zm1770 51c0-5-6-11-13-14l-14-5v28h14c7 0 13-4 13-9zm316-47c-8-31-22-31-30 2l-7 26 12 15 12 14 10-16 9-16-6-25zm-664 4 12-23v-122l1-122 7 12c4 7 8 19 8 28v15l31 23 31 23 10-10 10-10-5-113c-3-63-7-120-8-126-3-19-17-16-22 5l-5 17 1-25 1-25h51l3-31 3-31-25-17-26-16v-60h18l-3 18c-1 9 2 25 7 35l9 18 32-3 32-3 3-31 3-31-25-17c-15-9-26-22-26-28v-11l19 17 20 18 18-4 18-3 13-27 13-27-13-21c-16-25-19-25-45 0l-21 19-16-22-15-22-15 18-14 18-5-15-6-15 12-5 12-5-20 2c-29 4-44 15-66 51l-19 31v-25h-40v71l-10-6c-5-3-10-14-10-24v-19l-19-5-19-5-11 11-11 11v-26l-14 12-15 11 6 15c3 8 8 13 11 10 8-9 63 35 75 61l10 24 7-10 6-10 12 19 12 19-12 7-11 7 7-11 7-12h-10c-6 0-11 6-11 13 1 15 24 47 35 47h7l-5-15-6-14 9-6 10-6v15c0 8-5 27-11 43l-11 28-8-20c-10-27-60-79-67-71-4 3 3 16 14 29 25 26 30 51 20 90l-7 27h-31l11-19c5-11 10-23 10-27v-6l-21 5-22 6 12-12c6-6 11-15 11-20v-9l-14 5-14 6 5-19 5-18-21-11-21-12v8c0 4-5 0-11-10l-10-17 7-13c4-6-3-3-15 8l-22 19 10-28c6-15 11-34 11-43v-15l-15 12-15 12v-11c0-6-6-11-13-11h-13l-19 33c-10 17-33 50-50 72-18 22-37 54-43 71l-10 32 29 6c16 3 36 3 44 0l16-6-2 8c-1 5-1 15 0 23l1 13 24-6 25-6 11 17 11 18 5-12 5-12 17 6 17 5-11-9c-10-8-16-43-6-43 2 0 13 10 24 23 11 12 17 17 14 11l-6-12 19-5 20-5-6 14-5 14h16c19 0 20 5 5 31l-11 21-13-19-14-18-1 16v17l-22 16-23 17 37-4 37-3 7 16c8 19 9 62 2 81l-6 16 10 14 10 14-5-16-5-17 8-8c11-11 31-141 24-158-3-7 2-28 11-47l15-34-8 95c-7 98-8 132-3 235 5 97 17 119 43 73zm-1135-34c-5-5-77 35-77 42 0 3 18-5 41-16 23-12 39-24 36-26zm1443 31c20-24 6-28-15-5l-18 20h10c6 0 16-7 23-15zm-1040-9c0-3-4-8-10-11l-10-6v10c0 6 5 11 10 11 6 0 10-2 10-4zm-440-26 15-10h-15c-8 0-22 5-30 10l-15 10h15c8 0 22-5 30-10zm1596 1c-3-5-16-11-28-14l-23-6 19 14c11 8 24 15 29 15h8l-5-9zm-489-36c-15-16-19-13-11 9l6 16 9-6 9-5-13-14zm517-38 11-9-24 6-24 5 12-12c26-26 10-34-34-17l-27 10 13 17 14 17-12-8-13-7v8c0 5 12 14 28 19l27 10 9-15c5-9 14-20 20-24zm-1616 20 11-13-20-18-21-17-14 5-14 5v39l13 5c21 9 34 7 45-6zm-160-24c-16-37-15-36-28-28l-12 7 23 24c29 31 31 30 17-3zm1897-13c0-8-6-15-12-17l-13-5v19c0 11-6 25-12 33l-13 14 25-16c14-8 25-21 25-28zm-1810-11c4-6 17-14 29-19l21-9h-21l-22-1-12 15c-15 19-34 19-49 1l-11-13 15-13c8-7 15-20 15-28v-16l12 12 12 12-19 20-18 20h11c7 0 12-4 12-10 0-5 6-9 13-7l12 2-2-12-3-13h59l7-12 7-11-12 7-12 8 7-26 6-25-22-28-22-28 2 15c1 8 2 22 1 30l-1 14-11-11-11-11-14 5c-8 3-14 9-14 14v8l15-5 15-6v22h-14c-8 0-18-4-21-10-3-5-10-10-16-10h-9l11 19 12 18-15 31-16 30 16 16c19 18 48 21 57 5zm1756-10c11-11 18-23 15-27-4-3-13 4-22 16-19 28-36 28-60 0-10-12-14-18-7-15 6 4 18 4 26 1l16-6-6-15-6-15 24 6 24 7-18-14-17-14 22-17 23-16-28 6-27 6 6-18 6-19-15 17-14 17-12-12-13-12 2 15c4 26 0 40-10 40h-10v-57l25-23 26-24 47 17 47 17-19-15c-11-8-17-15-13-15h8l-10-18-10-19h28l-6 11c-4 6 3 3 15-8l22-19-6-9-6-9 12-14 12-15h-50l-9 13c-6 6-13 23-16 36l-6 25 11 14 12 14-35-6-34-7-42 40c-24 22-43 46-43 53v12l14-19 13-18 5 26 5 26-16 5c-9 3 1 4 22 1l37-4v10c0 5-7 9-15 9s-15 4-15 9-8 12-17 14l-18 5 20 1c11 1 29 8 39 16 27 20 42 19 67-6zm-1844-48c-10-4-57 38-57 52 0 5 15-4 33-20l33-28-9-4zm1963-26c0-5-7 1-16 13l-16 23-14-12-14-11v11c0 6 5 11 10 11h10v33l-23-21c-35-33-45-26-12 8l29 30 23-37c13-21 23-42 23-48zm-2009 38c7-10 9-15 4-10l-9 7-24-22-25-23 17 33c19 37 19 37 37 15zm511-7c10-7 22-26 28-42l11-29-34 33-34 34v-52h8c5 0 9-6 9-14s6-16 13-19l12-4-14-16-13-17 10-29 10-29-19 5-19 5 10-28 10-29-15 20-16 20 2 50c1 28-1 65-5 82l-7 33 6 20 6 20h12c7 0 20-6 29-14zm-216-114c4-13 4-26 0-29-3-4-6 3-6 14v21l-40 43c-22 24-40 47-40 52 0 16 79-77 86-101zm44 94c0-3-4-8-10-11l-10-6v10c0 6 5 11 10 11 6 0 10-2 10-4zm-275-20c-11-8-23-12-28-9-13 8 3 23 26 23h21l-19-14zm1853-10 4-17-18-20-17-19h-21c-12 0-28 5-36 11l-15 11 17-6 17-5 31 10 30 11v12c0 7-6 18-12 25l-13 14 15-5c8-3 17-12 18-22zm-218-28-30-41-1-31-1-31-5 18c-7 28 4 62 33 96 37 44 39 38 4-11zm-1683 0-5-13-1 19c-1 11 2 17 5 13 3-3 4-12 1-19zm1943 12c0-5-2-10-4-10-3 0-8 5-11 10l-6 10h10c6 0 11-4 11-10zm-1854-24 19 7-12-13-12-13-26 11c-14 6-25 17-25 23v12l19-17 18-16 19 6zm609 14c-3-5-15-10-26-10h-20l6 10c3 6 15 10 26 10h20l-6-10zm-521-22c-12-22-37-48-44-48-4 0 4 13 19 30 28 32 36 37 25 18zm-284-66-12-27-11 23-10 22 13 28 12 27 11-23 10-22-13-28zm156 53 19-14-23 6c-12 3-25 9-28 14l-5 9h8c5 0 18-7 29-15zm1732-10c12-14 18-25 13-25s-16 11-25 25-15 25-13 25 13-11 25-25zm276 1c11-45-16-78-29-36l-6 20 6 20c9 27 22 25 29-4zm-1793-60c16-21 29-44 29-49 0-9-13 7-82 98l-22 30 23-20c13-11 37-38 52-59zm1439 64c0-5-5-10-11-10h-10l6 10c3 6 8 10 11 10 2 0 4-4 4-10zm-14-55c-50-60-64-65-19-6 42 54 57 71 61 67 2-3-17-30-42-61zm-1571 45c-3-5-16-10-28-9l-22 1 25 8c14 4 26 8 28 9s0-3-3-9zm126-74c16-21 29-44 29-50s-10 5-21 24c-12 19-35 51-52 70l-32 35 24-20c13-11 37-38 52-59zm889 64c0-5-4-10-10-10-5 0-10 5-10 10 0 6 5 10 10 10 6 0 10-4 10-10zm586-41c-25-28-46-56-46-62v-10l-6 6-7 6 42 56c23 30 46 55 52 55h11l-46-51zm-961 31-20-9h32c17-1 38-4 47-7l16-6-7-11-6-10 21 5 22 6v-19l19 10 18 10-3-45c-2-25-6-50-10-56l-6-10-7 10-7 11-47-64-48-64-15 6-16 6 5 23 4 24h-19l6 15c17 42 16 47-4 18l-22-33-8 5c-5 3-14 21-20 39l-11 35-20-4-19-4v39h-22l6 15 5 15h-20l18 24 18 24 10-6c6-4 12-7 15-7s27-7 53-14l48-14 6 7 6 6h-40l-17 18-16 19 37 1h38l-20-8zm-703-23-11-13 6-25 6-24-8 7-8 8-13-11-14-11-14 5-14 6 5 20 5 21 11-7 10-6-7 11c-11 18-1 27 29 30l27 2-10-13zm1811-105c57-81 90-140 101-182 4-14-8 6-28 44s-42 76-50 85c-19 22-88 131-82 131 2 0 29-35 59-78zm-1764 46c-7-13-25-42-41-65l-29-43h76l65 30 65 30-20-16c-11-9-33-22-50-30l-30-13 17-1h17l-5-15-6-15-9 6-9 5 6-14 5-14-23-8c-13-4-26-7-30-6-5 1-8-3-8-7s-11-9-25-10l-25-2v10c0 6-7 10-15 10h-15l10 26 10 25-12-7-11-7 6 17c8 20 88 136 94 136 2 0-2-10-8-22zm-69-57c-1-3-18-35-38-71l-37-65-40 3c-22 1-46 3-52 4-16 2-17 28-1 28h11l-7 7-6 7-57-55-56-54 67 80c37 44 82 103 99 132l31 52 43-31c24-17 43-34 43-37zm1982 11c21-32 63-86 93-119 66-73 73-95 11-34l-45 44 6-22 6-23-59 6c-32 4-59 8-60 9s-19 31-40 66l-37 65 39 33c21 18 41 33 44 33s22-26 42-58zm-1542 8c0-5-5-10-11-10h-10l6 10c3 6 8 10 11 10 2 0 4-4 4-10zm-372-25-2-25-8 8-9 9 7 16c9 24 14 21 12-8zm339-7-5-13-1 19c-1 11 2 17 5 13 3-3 4-12 1-19zm55 10c-7-7-12-16-12-21s7-1 16 7c8 9 20 16 25 16h10l-12-21-11-21 11 6 11 7v-11c0-12-28-70-34-70-3 0-3 11-2 25l3 24-7-4-8-5-5 27c-6 31 1 53 16 53h11l-12-12zm1345-46 43-5-6-8-5-9h31v-15c0-8 0-18 1-22 0-5-14-11-31-14l-30-7-6 9c-3 5-9 7-14 4l-9-6-31 32-31 33 11 6 11 7-30 13c-17 6-35 18-41 25l-10 12 52-25 53-25 42-5zm1 33c-3-3-9 2-12 12l-7 18 12-12c7-7 10-15 7-18zm-1448-65-11-20 12-22 12-23-16 14c-20 16-22 42-5 59s20 15 8-8zm173 4-4-12 19-32 20-32 7 23 7 22 10-17 9-16 10 5 9 6v-21h32l-4-12c-3-7-16-15-31-19l-27-7-1 21v22l-10-25-10-25-19 23c-10 12-23 22-29 22-10 0-13 7-10 26 0 4-5 10-11 14l-12 8 6 20 7 21 18-2 19-1-5-12zm260-4c-3-11-9-20-15-20h-9l11 20c6 11 12 20 14 20s2-9-1-20zm257-18-11-4 56-28c31-16 67-38 79-49l22-21 9 7 8 8-7-12-7-13 23-9c13-5 40-12 60-16l37-6 8-13c5-7 22-21 40-30l32-16h67l42 20c22 11 48 20 56 20h15l11-21 12-21-6-23-6-23-37-19c-45-24-49-34-23-64l20-24-3 34-2 33 18 12 17 11 18-11 17-11 3-29 4-28-17-12-17-12 11-21c6-11 11-31 11-46v-26l-9 5-9 6-11-14-11-13 25-17 26-17-3-27-3-27-14 3-13 3 5-14 5-13-17-1c-29-2-46-8-53-18l-7-9-9 24c-5 14-19 33-31 44-11 10-19 22-16 25 2 4-5 13-16 19l-20 13 16-31c17-33 7-42-13-10-7 11-11 21-10 22 5 8-26 49-45 59l-22 12 15-19 15-19-33 28c-19 15-38 27-44 27h-10l26-35c15-19 23-35 19-35s10-9 32-19c39-18 90-65 114-106l13-20-6 18-5 17h9c14 0 30-35 30-64v-26l-20-20-20-20v-81l-30-17-30-17v-54l-12-8c-7-4-26-34-42-65-16-32-34-58-39-58h-9l6 28 7 27-11-15-10-15 6-30 5-30-10 15-11 15v-41l-20-22c-23-25-39-30-20-7l12 15h-63l-29 15c-16 8-37 27-48 42-27 40-61 145-68 212l-6 57 25 49c14 28 32 59 41 70l15 20-25 26-26 27-5 41-6 41h21l6-32c4-18 7-41 7-50 0-15 11-24 34-27 6 0 10 3 10 8s3 13 8 17l7 8-22 23c-12 13-23 30-24 39l-2 15 14-12 14-11-6-9-5-8 38-18 37-18 23-34 23-34v-64l-29-37-30-37 22-57 22-57 28-24c16-13 33-34 38-45l9-21-6 60-6 60-16 25c-28 43-21 70 8 35l13-15-19 7-19 7 33-31 32-31 2-24c0-12 1-29 1-35l-1-13 29 21 29 20-1 17v17l-10-24c-14-35-19-21-9 24l9 40-17 9c-9 5-31 23-48 40l-31 31-7 48c-4 27-9 57-11 68l-4 19h8c4 0 16-9 27-21l18-20 22 4 21 4 11-17 10-17-31 11c-18 6-38 15-45 20-20 13-25 0-7-18l16-16-13-1-13-1 12-5 13-5 10-39 11-39 28-15c16-8 31-21 34-29l6-15 20 2 20 1 5 22c3 12 3 30 0 38l-6 16 13 18 13 17-25-22c-14-13-32-23-40-23-20 0-39 20-39 42v18h37l17 19 18 20-12 35c-14 44-24 47-15 6l6-30-6-10-7-11-15 20-14 21h-39v20h35l-14 9-14 9 19 4 19 4-38 24-39 23 14 9 13 10-58-5-57-6 3 7c2 4-14 23-36 42l-40 35 12-22 12-23h-10c-9 0-38 27-67 63-6 7-16 31-22 53l-10 39-1-27-1-28h-9c-5 0-23 24-41 53l-31 52 6-22c10-34-1-28-35 22-17 25-35 45-40 45-6 0-16-15-24-34-8-18-19-37-25-40l-11-7 6 15c11 30-4 16-32-28l-28-45-8 12-7 11-10-27c-6-16-12-38-12-50l-1-22-7 30-7 30-22-42-22-42-20-6-21-7-8-21c-4-12-8-48-9-80l-1-58-16-33-16-33-26-12c-31-14-43-7-13 9 26 14 60 68 60 95l-1 20-10-17c-13-23-29-23-29 0v17l8-13 9-13 11 26c7 14 12 37 12 51v24l-37-15c-21-9-64-34-95-56-67-47-76-38-17 16l41 36 46 20c52 23 79 44 93 74l10 20-15-19c-9-11-16-17-16-14 0 4-12 1-27-7s-30-12-35-9l-8 5-6-15-6-16h-58v-20l-23 2-22 2-33-19c-17-11-32-22-32-26s-8-10-17-13l-18-7 23 24 23 25-12 4-13 4 18 7 17 7-6-10-6-10h8c4 0 17 7 27 15l20 15 19-6 20-6-7 11-7 11h32l5 15c4 8 9 13 13 11 4-3 7 4 7 15v19l-25-5-26-4-18-23-19-23 6 20 6 20-15-19c-8-11-15-17-15-13 0 5-12-4-27-18-16-14-28-31-28-37v-13l-18-3-17-3v9c0 5 9 21 21 36l21 27 62 31 61 31 54 11 54 11 5 15 5 15-14-11c-8-6-24-14-37-17l-23-6 14 22c7 11 22 26 33 31 10 6 34 21 52 33l34 21 14-5 13-5 16 14c9 7 22 19 30 25 7 7 22 14 32 16s37 13 60 25 51 22 61 22c27 0 75-26 105-56l25-25-6 23-5 23 19-14c10-8 29-26 41-40l23-26 1 15v15l9-20 9-20v18l1 18 29-20c33-24 46-27 35-8l-7 12 21-19c12-10 21-21 20-25-2-17 3-31 18-45l15-16h33c36 0 150-36 181-57 11-7 31-13 45-12l25 1-27 8-28 8-35 37-36 36 7 11 7 11 9-17 9-16h34l-10 8c-5 4-21 22-34 41l-24 34 14-8c8-4 21-14 30-22l17-14 6 26c4 14 4 30 1 35l-6 10h-170l-32 14c-18 7-41 24-52 36l-20 24 25-17c13-9 31-17 40-17l15 1-31 13c-17 8-47 28-66 45l-36 31-6-15-6-16 9 5 8 6 18-20 18-20h-10c-6 0-14 7-17 16l-6 17-7-6-6-7-15 13-15 12 12-25 12-25-22 25-21 25h-38l-30 28-30 29 6 11c3 7-1 4-9-5l-14-17-9 8c-5 5-18 11-28 13l-19 3-3 17-2 17 14 12 14 11v-8c0-5 4-2 10 6l9 14 22-19 22-20-12 23-12 22h10c5 0 13-5 17-11l6-11 12 12 11 13-12 4-13 5v31l1 32 15-20 15-20-11-3zm-1089-19c-11-21-20-35-21-32 0 14 31 81 36 76 3-3-4-22-15-44zm603 21 6-17-15 13c-17 14-19 20-6 20 5 0 12-7 15-16zm1194-102 77-74-80 69c-44 37-93 78-110 91l-30 23 33-18c19-10 68-51 110-91zm-1568 70c-19-15-62-52-95-82l-60-55 40 44c42 46 132 121 143 121 4-1-9-13-28-28zm569-32c-23-28-40-53-37-56s15 10 27 29l21 35 18 4c10 3 31 4 48 3l29-2-2-24-3-24 14 17 13 18 6-7c4-3 7-12 7-20v-13l-32-14-33-13-12 9-12 10-27-29c-15-15-24-21-20-13 5 8-8-3-28-25l-35-40-1 14v13l-17-13-18-14 14 17 13 18 11-7 10-6-7 11-7 12 11 22 11 23-22-28c-11-15-38-36-58-46-20-11-45-28-55-40l-19-21h-96l-6-9-5-9 17-5 18-5-34-1-34-1 18 20 18 20h-21c-11 0-23 4-26 9l-6 9 42-4 43-4-25 8-25 8 19 7c36 14 9 17-30 3l-40-14-29 25-30 25 25-13c14-6 28-16 31-21l5-8 87 45 87 45h47l44 41c38 35 106 75 132 78 5 1-11-22-34-49zm-249-30c1-8 2-22 1-30l-1-14-16 22-15 22-10-5-9-6v11c0 5 5 19 12 29l12 20 12-18c7-9 13-23 14-31zm-185 16-25-25 7-17 6-17-11 7c-7 4-12 14-12 22 0 16 35 54 50 54 5 0-2-11-15-24zm1170-74c-3-3-11 0-18 7l-12 12 18-7c10-3 15-9 12-12zm-1184-29 14-16-22 12c-24 12-29 21-14 21 5 0 15-7 22-17zm-38-55-11-23-7 27-7 28 7 17 7 18 11-22 10-23-10-22zm697 52v-10h-99l-6 10-6 10h111v-10zm1036-77c-3-25-17-71-31-102l-24-56 15 23 16 22 17-1 16-1-13-5-12-5 22-18 23-18-46-89-45-88-13 3-12 2 6-10 6-10h-10c-10 0-15 13-13 31 1 4-6 5-16 3l-17-4-37 33-37 34 56 39 56 39 34 60 33 60 11 53c15 65 24 68 15 5zm-1641 22 40-14h-50l-19 14c-24 18-21 18 29 0zm1335-25c0-5-2-10-4-10-3 0-8 5-11 10l-6 10h10c6 0 11-4 11-10zM568 1423c62-61 70-73 33-54l-18 10v-28l9 5c18 11 6-9-23-39-17-18-28-25-24-17l6 15-13-16-13-16-13 4-12 5 6 9 5 9h-33l6 16 6 15-9-5-8-5-23 50-24 50 14 10 15 9h-23l2 16c1 9 10 20 19 25l16 9 10-17 10-18 1 11c0 7-9 31-20 55s-19 53-19 64v20l26-65 27-65 64-62zm76 144c-3-9-10-17-14-17-12 0-20 28-13 46l6 16 14-14 14-14-7-17zm188 31c-6-7-12-26-15-43l-4-30-2 31-1 30 12 12c16 16 23 15 10 0zm275 6c-3-3-12-4-19-1l-13 5 19 1c11 1 17-2 13-5zm1298-41-7-28-10 22-11 22 7 17 7 17 11-11 11-11-8-28zm-1430 28-29-6-12-23c-6-12-14-26-18-29l-7-7 7 19c4 11 14 28 22 38l15 17 26-1 26-1-30-7zm609-69 44-52 10-32c6-18 13-57 16-86l5-53-8 6-9 5-5-27-5-28 19-26c26-37 24-48-2-15l-21 27-16-6-15-5 6 62c3 35 9 74 13 87l7 24-9-6-10-6-27 45c-14 24-22 43-18 41 5-1 8 3 8 8-1 6-7 9-13 7-14-3-27 14-30 38-1 8-6 26-10 39l-7 24 16-9c9-5 36-33 61-62zm-84 43c0-8-15-32-34-52-18-21-37-49-41-63s-25-45-46-69l-39-44v-23c0-12 4-34 10-48l10-26h-9c-4 0-13 10-19 23l-11 22v-24l-1-24 47-46c26-25 48-52 49-59 1-8 9-21 17-30 8-10 17-24 20-32l5-15 1 17c1 9-17 52-39 95l-40 78v80l20 25 20 25-16-45-15-45 6-31 5-32 35-43 35-44 10-35c5-19 10-51 10-70v-35l-35-49c-39-55-42-71-19-104l15-22-7-12-7-11 13 8 13 8-4-12c-12-35-49 12-49 62v28l21 41 21 41-4 41-5 42-27 46c-15 25-34 52-44 60l-16 13 22-29c12-16 22-33 22-39 0-12-39 32-78 87l-27 39v58l1 57 42 46 42 46v34l57 53c31 29 58 53 60 53s3-7 3-15zm365-73c-8-8-28 15-31 35l-3 18 20-24c11-13 17-26 14-29zm-1498-9-5-18v60l5-12c2-7 2-21 0-30zm1105-16-22-23 7-9 8-8-14 8-14 8 6-16c8-20-1-47-15-47h-10l12 15 12 14-7 10-6 11 10 19c15 27 42 53 49 46 3-3-4-16-16-28zm1144-57-24-62 3-18 4-19-17 6-17 6 6-7 7-7-24-26c-13-14-24-32-24-40v-14l10 6 10 6-5 10-6 9h21l-6-27c-3-16-7-34-10-40l-3-13h17l-14-29-15-30-29-13c-30-13-40-28-19-28h10l-6-10-6-10-9 5-9 6-21-41-21-41-9 6-10 6v-22l-9 6-10 5-3-22-3-21-14-5-14-5 6 24 6 24-14-19-15-20v12c0 7-3 11-7 11-5-1-17-1-28 0l-20 1 28 25c55 52 25 35-50-27l-78-65-80-99c-44-55-93-116-108-135l-28-34 22 40c12 22 49 77 81 122l58 81 73 64c39 36 104 90 142 120 93 74 133 118 190 206 50 78 104 190 106 219l1 18 5-17 4-17-25-61zM478 1302c52-87 115-159 199-230 37-31 109-97 159-147l91-90 39-60c42-65 65-105 60-105-2 0-30 35-62 78-32 42-96 116-142 164l-84 87-18-2-18-1 5-12 4-11-15-6-16-6v14c0 18-17 20-23 3l-4-13-8 7-8 8 12 13 11 14-26-5-27-5 6 10 7 11-20 5-20 5v57l-10-15-9-14-6 19c-4 11-9 26-11 34l-4 13-15-6-14-5-6 9-6 10h23l-12 15c-7 8-16 13-20 10l-7-4 3 24 2 25-9 6c-5 3-9 9-9 14v9l20-4 20-4-10 20c-13 23-22 26-14 4l6-15-17 6-17 7 6 29 6 29-10-6-10-6 2 8c1 4-11 35-26 68s-30 74-32 90l-5 30 24-58c14-31 43-88 65-125zm385 163c-3-9-8-14-10-11-3 3-2 9 2 15 9 16 15 13 8-4zm1808-79c-29-215-142-401-335-549-108-84-186-140-186-134 0 3 42 36 93 73 169 126 273 238 340 369 33 66 74 205 82 278 4 32 9 56 12 53 3-2 0-43-6-90zm-1952 56c14-10 33-30 44-43l18-26 6-41 6-42-17-45c-10-25-22-47-27-50l-9-6 10 26c6 15 10 51 10 81v55l-14 28c-8 15-27 36-41 45l-26 17-38 1c-21 0-48-3-59-7l-22-6v20l33 10 32 10 35-4 35-4 24-19zm860-66 10-24-7-6-6-7-28 58c-15 32-27 62-28 68 0 13 48-59 59-89zm844 83c20-5 37-14 37-18v-8l-41 7-42 8-27-8c-15-4-36-13-47-19l-21-10-16-43-17-42 6-50c4-28 14-64 22-81l14-30-17 20c-9 11-22 34-30 52l-14 32v98l23 34 22 34 35 17c40 21 60 22 113 7zM395 1270c27-82 92-208 140-270 42-54 116-128 205-203 25-21 7-10-40 26l-85 64-67 83-68 83-44 86-44 86-16 61-16 62 1 53 2 54 7-65c3-36 15-90 25-120zm1108 152-3-11 15 5 15 6v-20c0-11 2-35 5-53l5-34-9 20-10 20v-27l-1-27-19-6c-11-3-29-8-40-10l-21-4 4 42c2 23 11 59 20 80l16 39 12-5c7-2 12-9 11-15zm927-6c0-2-7-7-16-10l-15-6 6 10c6 10 25 14 25 6zm-445-26 6-10-15 6c-18 7-21 14-7 14 6 0 13-4 16-10zm-188-26c-3-3-12-4-19-1l-13 5 19 1c11 1 17-2 13-5zm-922-32c-2-2-9-1-14 3l-11 6 6 11 7 10 8-13c4-7 6-15 4-17zm259-34c-4-7-17-26-29-43-27-36-36-71-29-102l6-23 8 5c5 3 14 30 20 60l11 55h21l-4-35c-2-19-3-35-2-35s11 15 23 33c11 17 21 28 21 22 0-5-13-30-30-55l-30-45 18-7c19-7 19-8-23-14-16-3-33-11-37-17l-8-12-1 20c-1 11 0 28 1 38l2 19-21-12-21-11-6-24-6-25 13-18 14-17-19 15-18 14 5 43 5 43 42 57c38 52 67 83 78 83 2 0 0-6-4-12zm413-8c-3-10-2-21 2-23 3-2 0-2-6-1l-13 3-10-19-10-18 6-31 6-30 19-17 18-16-11 30-12 30 14 16c18 22 24 13 8-13l-12-21 12-12c6-6 12-23 12-36v-23l-11 7-11 6 16-30c9-17 16-39 16-49s9-33 20-51c12-19 16-31 10-27l-10 6v-6c0-4 16-33 36-65l35-57-7-27c-3-14-9-28-13-31l-7-4 4 32 3 32-10-15-11-15v23c0 30-21 69-66 123l-36 44 5 67 6 68-9 5-9 5-4-22-4-23-3 55-2 55-7-25-8-25-4 25-4 25 30 47c33 52 40 58 32 28zm368-8c-3-3-11 0-18 7l-12 12 18-7c10-3 15-9 12-12zm218-58c-7-18-9-16-17 21l-6 30 14-18 15-19-6-14zm-523-6c17-3 39-28 40-43v-10l-8 11c-4 6-17 16-29 22l-21 12-5-13-5-12-1 30-1 30 8-12c4-6 14-13 22-15zm-364-25-6-28 15 25 14 25 1-13c0-7-25-36-55-64l-55-51-9-31-9-31-1 32-1 32 45 48c25 26 48 55 51 65 9 28 17 21 10-9zm69-79c-8-13-15-29-15-36v-13l25 30 24 30 1-15c0-8-3-33-7-55l-6-39-8 19-8 20v-33l-1-33-10 6-10 6v-31h-22l6 34 7 34-11 7-11 7 6 42c4 22 12 50 17 60l11 20 13-19 14-19-15-22zm565 25v-10l-10 6c-5 3-10 11-10 16v10l10-6c6-3 10-11 10-16zm-650-100-22-34 6 25c3 14 6 31 6 38v13l10-6 10-6 1 18 1 18 5-16 4-17-21-33zm137-1-4-23v40l-1 40 5-17c2-10 2-28 0-40zm62-8c-7-14-21-63-36-130-3-14-11-28-17-32l-11-7 12-31 12-31-14 11-14 11-4 32-4 32-1-31-2-31 20-18c11-10 20-15 20-11 0 3 12 0 28-7 15-8 32-12 38-10l11 4 18-40 18-40 10 6 10 6-8-13-8-13-11 16c-6 8-17 24-24 34s-10 12-7 6l6-13h-8c-4 1-19 7-33 15-44 25-45 16-2-21l42-36v-23c0-13 16-56 35-96 19-41 35-83 35-96v-22l-16-15c-8-9-22-16-30-16s-14-4-14-10c0-17 71-105 91-112l19-7 24 9c27 10 36 29 36 73v32l-21 34-20 33-19 5-20 5 15 21 15 21v66l-30 32-29 33-1-11c0-6 9-19 20-29s17-21 15-26l-5-8-26 26-26 25 11 11 10 10-10 21-10 21 24-27c14-15 27-25 29-22 3 2 12-4 22-15l17-19 6-36 6-37-12-23-13-23 30-30 31-30 6-37 7-36-12-29-12-29-27-12-28-11-27 7-28 7-29 46c-16 25-29 40-29 34 0-7-9-22-20-33l-20-20h-22l-23 1 31 13 31 14 7 17c3 9 6 23 6 30v13l-44 26-44 26-22 46-23 46 6 51c6 47 20 77 32 66 2-3 0-30-7-60l-11-54 16-37 16-38 33-20 33-20 30 2 30 3 3 18c2 10 0 26-4 35s-6 22-5 29c2 17-37 93-48 93-5 0-12-7-15-16-4-9-9-14-12-11s0 14 7 25l13 20-17 26c-10 14-17 29-16 32 0 3-11 18-25 33l-26 27 7 9 8 8-11-6-12-7-16 33-16 32v-15c0-20 29-63 60-89l25-20-11-1c-13 0-68 57-84 88l-12 24 13 51c7 29 27 79 45 112l34 60v-17c0-9-4-20-10-23-5-3-10-11-10-18v-11l16 23 16 23-5 39-5 39 18-22 18-22-9-16zm-184-20c-4-12-9-19-12-17-3 3-2 15 2 27s9 19 12 17c3-3 2-15-2-27zm612-2-5-13-1 19c-1 11 2 17 5 13 3-3 4-12 1-19zm-718-38-1-15-5 13c-2 6-8 10-12 7l-8-4 5 27 5 26 8-19c4-11 8-27 8-35zm520-5 1-10-10 15c-5 8-9 22-9 30v15l9-20c5-11 9-24 9-30zm-370-65c0-8-7 4-16 28l-15 42-9-6c-11-6-11-2-2 22l6 17 18-44c10-24 18-51 18-59zm385 23c8-19 2-16-25 13l-24 27 22-14c13-7 25-19 27-26zm-114-7 29-24-5-66-4-67 38-15c20-9 49-27 63-41l27-25 6 11 7 11h-25l33 24c18 13 39 33 46 43l14 18 1-11c0-7-16-26-35-43-20-17-33-31-29-31 3 0 1-7-6-15l-12-15 5-14c3-8-12 3-33 24s-53 46-69 55c-17 8-35 24-41 34l-10 20 11 27 10 28-5 21c-3 11-17 32-31 48-32 33-23 35 15 3zm-21-95-1-16-5 15c-4 8-17 29-30 46-34 45-28 53 7 9 17-21 30-45 29-54zm-358-31-10-25v37c-1 20 2 45 7 55l7 18 3-30c2-17-1-42-7-55zm49 32-21-28-6-37-6-37 29-10 28-11 26 11 25 10-20-15-20-16-30 6c-45 8-55 36-34 92 9 26 37 63 46 63 2 0-6-13-17-28zm289-31v-16l-10 24c-5 14-13 30-17 36s1 2 11-8c9-11 17-27 16-36zm-19-15c0-26-6-18-14 19l-7 30 11-15c5-8 10-24 10-34zm-247-21 5-49-14 24c-14 27-18 63-7 73 9 10 10 8 16-48zm333-83c-6-5-36 23-36 34 0 4 9-1 20-11s18-20 16-23zm86 0 13-16-15 9c-8 5 0-5 18-22l32-31v-62l-20-20c-11-11-26-20-32-20h-12l22 16 22 15v22c0 12-3 32-6 45l-7 23-13-5-14-5v19l-32 1-33 1 30 7 29 6-27 18c-15 9-27 22-27 27v9l29-10c17-6 36-18 43-27zm-844-87c-15-33-25-32-33 3l-6 29 11 29 12 29 13-33 14-33-11-24zm1378-3-14-27-12 27-13 27 13 31 13 32 13-32 14-32-14-26zm-801 61c-5-10-11-38-15-63l-6-45-8 26-7 26 15 37c8 20 18 36 22 36 3 0 3-8-1-17zm92-157 1-41-7 36c-4 19-15 46-24 59-25 37-20 49 6 16l23-29 1-41zm-92-65 40-44-27 17c-25 16-58 57-58 72 0 4 1 5 3 3 1-2 20-24 42-48zm-105-250c0-9-5-23-10-31l-10-15-10 15c-11 18-13 41-3 66l6 17 14-19c7-10 13-25 13-33zm448-16c-15-29-15-29-27-7l-11 21 11 28 11 28 13-25 13-25-10-20zm-228-92V50h-15c-16 0-19 9-9 35l7 17 8-14c5-7 9-19 9-25zm-91 2812c-20-13-39-32-43-41l-6-17 41 37 41 37 14-5 15-6-6 10c-9 15-16 13-56-15zm16-66c-4-6-5-12-2-15 2-3 7 2 10 11 7 17 1 20-8 4zm71-72c-7-19-17-45-20-58l-7-24 20 30c20 31 38 85 27 85-3 0-12-15-20-33zm-65-113 1-19 5 13c3 7 2 16-1 19-3 4-6-2-5-13zm628 21c-14-8-34-27-44-42l-18-28 19 15c79 60 98 85 43 55zm135-20c3-9 6-19 6-21s7-4 15-4c25 0 13 32-14 38l-13 3 6-16zm-144-40c-7-9-11-17-9-20 3-2 10 5 17 15 14 24 10 26-8 5zm225-5-20-9h17c9-1 20 4 23 9 7 11 7 11-20 0zm-635-90-15-10h12c6 0 15 5 18 10 8 12 4 12-15 0zm-369-151c0-19 4-43 9-54l9-20-6 50c-7 59-13 72-12 24zm41 11v-25l5 13c2 6 2 18 0 25l-5 12v-25zm48-14c0-8 50-33 92-44l37-10 16 12 17 12-34-4-34-4-40 18c-21 10-42 20-46 22-5 2-8 1-8-2zm243-72-28-25 33 22c17 13 32 24 32 26 0 8-11 1-37-23zm335-36-23-32 3-38c4-71 7-86 14-82 4 3 10 20 14 38l6 34-10 19-10 18 14 20 14 19 1-20 1-19 8 25c19 59 4 68-32 18zm-358-173c13-14 26-25 28-25 3 0-5 11-18 25s-26 25-28 25c-3 0 5-11 18-25zm388-60c-8-8 3-55 13-55 5 0 9 9 9 20v20h-21l6 10c7 11 2 14-7 5zm-67-171 1-19 5 13c3 7 2 16-1 19-3 4-6-2-5-13zm55-19c4-8 8-15 10-15s4 7 4 15-4 15-10 15h-9l5-15zM673 2243l-13-5 14-14c8-7 16-19 19-26 8-23 15-4 10 25-5 27-8 29-30 20zm603-186 15-8 27 9 27 9-42-1-42-1 15-8zm416-257c18-25 34-47 35-49 2-2 5-2 8 1s-13 25-36 49l-40 44 33-45zm70-56c10-10 20-16 22-13 3 3-5 11-17 18l-22 13 17-18zm167-66 35-22-25-7-24-7h35c19 0 44 3 55 8l20 9h-25l-25 1-30 20c-16 11-34 20-40 20-5 0 5-10 24-22zm-86-5c9-2 23-2 30 0l12 5h-60l18-5zm207-13-15-10h12c6 0 15 5 18 10 8 12 4 12-15 0zm35-30c3-5 10-10 16-10 5 0 9 5 9 10 0 6-7 10-16 10h-15l6-10zm-709-27-7-18 12 12c7 7 10 15 7 18s-9-2-12-12zm551 6c7-7 15-10 18-7s-2 9-12 12l-18 7 12-12zm-217-68c0-6 4-13 10-16l10-6-6 15c-7 18-14 21-14 7zm370-15c0-5 13-25 30-46 16-20 27-40 25-44-3-3 0-2 6 3l11 9-10 18c-12 23-62 71-62 60zm-284-31c4-8 11-15 16-15h10l-12 15c-7 8-14 15-16 15s-1-7 2-15zm354-2c0-5 7-17 15-27l15-20v11c0 7-5 15-10 18l-10 6 5 10 6 9h-10c-6 0-11-3-11-7zm-295-59 28-26-14-9-14-9h58l-19 23c-25 30-46 47-57 47-6 0 3-12 18-26zm-52-19c15-14 33-25 40-25 6 0-4 11-23 25-43 32-53 32-17 0zm230-16 48-30 11-29 10-29 20-7 20-6 11 11 11 11h-41l-24 34-24 35-36 20c-56 32-60 25-6-10zm77-30v-10l10 6c6 3 10 8 10 11 0 2-4 4-10 4-5 0-10-5-10-11zm71-25 1-19 5 13c3 7 2 16-1 19-3 4-6-2-5-13zm-381-87c21-34 26-57 11-57-5 0-11 13-14 29l-6 28-15 6-16 6 12-19 13-20-22-42c-12-24-25-56-29-73l-6-30-9 24-9 24 6 21c4 11 16 33 27 47l19 27-4 13-5 14-31-44-32-44v-26c0-14-3-35-5-46l-5-20 8-13c5-7 17-14 26-16 9-1 16-6 16-11-1-9 55-35 76-35h14l-17 36-17 36-4-11c-2-5 2-20 9-33l12-23-32 33-33 33 6 32c3 18 15 46 27 62l20 30-6-40-6-40 25 30 26 30v33c0 38-13 67-34 75l-15 6 19-32zm240-29v-28h10c13 0 13 20 0 40l-10 15v-27zm41-10c0-9-4-25-7-35l-6-18 12 18 11 18-4 17-5 17-1-17zm-93-75c6-2 18-2 25 0l12 5h-50l13-5zm-238-62c0-6 4-13 10-16l10-6-6 15c-7 18-14 21-14 7zm-55-59c3-7 5-16 5-18s10-4 21-4h21l-11 13c-6 8-9 16-6 18 2 3-5 5-16 5h-19l5-14zm-5-47c0-9 12-41 26-71l26-54 27-14c15-8 43-17 64-21l37-7v53l-25 24c-13 14-21 25-17 25 4 1-4 7-18 15s-21 14-17 15c17 0 53-23 76-48l23-27-18 32-17 31-24 11c-13 6-43 12-66 12l-42 2 40 6 40 7-40 5c-22 3-48 9-57 13l-18 8v-17zm141-8c2-1 13-9 24-17l20-15-14 18c-7 9-18 17-24 17s-8-1-6-3zm-558 819c-11-13-38-33-60-45l-42-21-13 5-14 5-17-13-18-13 20-1 21-2v20l10-6 10-6 43 19 44 19 22 32c26 36 21 42-6 7zm-83-96c-8-5-31-10-50-10l-35-1 18-10 18-11 30 12c16 7 32 17 35 21 7 11 3 11-16-1zm-65-50-20-9h17c9-1 20 4 23 9 7 11 7 11-20 0zm-283 30v-25l5 13c2 6 2 18 0 25l-5 12v-25zm1647-247-14-18 18 14c16 13 21 21 13 21-2 0-10-8-17-17zm-1983 24c3-10 9-15 12-12s0 11-7 18l-12 12 7-18zm1938-309-19-23 23 19c21 18 27 26 19 26-2 0-12-10-23-22zm-964 241c-7-11-10-23-7-25 2-2 9 7 15 21 14 30 7 33-8 4zm-440-209-10-20 15 6c8 4 15 12 15 20 0 20-7 17-20-6zm521-126 1-19 5 13c3 7 2 16-1 19-3 4-6-2-5-13zm9-38c0-8 4-17 9-20l9-6-5 20c-6 23-13 26-13 6z" />
    </g>
    <g fill="#1a1310" transform="matrix(.1 0 0 -.1 0 300)">
      <path d="M0 1500V0h3000v3000H0V1500zm1707 1423 46 5-14-10-14-9 75 5 75 5-34-10-34-10 11-11 11-11 68 1c37 0 59-2 48-4-11-3-30-7-43-10l-23-5 6-9 5-9-19-6c-11-3-25-12-31-20l-12-15 42 15c51 18 64 13 23-9-16-8-36-22-44-32l-14-17 33 17 33 17 12-5 12-4-17-1c-9-1-20-6-24-12l-7-11 22 7 21 6v-9c0-6-20-18-45-27l-45-18-50 5-51 5-25-32c-13-17-24-37-24-43 0-15-48-70-73-84l-21-11 26 31c26 31 30 40 42 94l6 28 25 16c14 9 40 20 58 24l32 8-28 1c-15 1-42-5-60-13l-33-13-18-28-18-27 11 6 11 7v-8c-1-10-26-54-60-109l-25-39-3 16-3 16 26 48c14 26 25 55 25 64v16l-30-50c-16-27-30-58-30-67s-5-20-11-23l-10-7 6 39c4 21 16 60 26 86 11 27 18 51 16 53s-19-33-36-78l-33-82 6-30 6-31-10 17-10 17-20-4-19-4-21 33-20 33-1 29-1 29-9-34-10-33-21 18-21 19 7-19 6-19-13 11-14 12-8-8-8-7 6 18 7 18-10-6-9-6-5 23c-12 55-15 60-12 21 2-24 2-43 0-43-3 0-14 19-25 43l-19 42 4-25c2-14 7-34 11-44l8-19-14 8-14 8 8-9c5-5 14-9 20-9l12-1-3-12c-1-7 1-11 5-10 5 1 19-3 33-9s28-10 31-9c4 0 15-6 25-15 28-23 99-51 130-51h26l9 13 9 14v-27l13 10c26 21 107 62 123 62h17l54-41c29-23 56-46 60-52l6-9-19 5c-11 3-32 8-47 11l-29 7 6-10 6-9-12-5-13-5 28-1c16-1 37-6 48-11l19-11v-29h-23l6-7 7-6-11-13-11-13 7-11c3-5 15-10 26-10h21l-6-27-6-28 10-15 10-15v15c1 8 3 32 6 52l6 38-16-6-15-6 2 21 1 21h36l2 28c0 15 1 34 0 43l-1 16h28l17-45 17-44-5-107-5-106 13 31 13 31 26 17 27 18 11-11 11-11-3-98c-3-53-5-109-5-124l-1-28-15-1-15-1 25-7 25-7 3-31 3-32-20-13c-12-7-21-16-21-21 0-4 11-1 24 8l23 15 17-6c9-3 21-15 27-26l10-19-16-25-15-24h40l15-24 16-24-7-26-6-25-20-7-20-6-11 11c-15 15-27 14-27-4s-12-19-29-2l-13 12 7-25c12-40 3-40 108 3l28 12 17-11 17-11v-66l-20-11c-11-6-30-18-42-27l-22-16 14-19 14-19 1 20c0 26 18 45 42 45h18l16-25 16-24-17-29-18-29 12-29 11-29-5 28-6 29 11-7c19-12 3-67-24-87l-10-6 14-17 13-16 9 13 8 13-6-35c-4-19-10-40-15-46l-8-10 5-20 5-19-16-20-16-20 9 20 9 20-6 17-6 16-24-12-24-13 12-7c6-4 11-16 11-26v-18l-35-37-36-36 6-20 7-20-12-30-13-29-23-6-24-6v-59l-15-5c-8-4-15-12-15-19 0-12-48-105-59-115-4-3-19-22-34-43l-28-37-17 1-17 1 13 5c6 2 12 9 12 14v9h-72l-37 39c-100 108-129 141-122 141 4 0 13-6 20-13l13-12-6 30-6 30 9 70c4 39 11 77 15 85l6 16-12 17-13 17-2-27c-1-16-8-57-16-93l-14-64-7 34-8 35-9-24-10-24 13-36c6-20 13-42 14-49s17-35 34-62l32-50-6-35c-4-19-11-37-16-40l-8-5-6 30c-3 16-8 43-11 58l-6 28-44 54c-24 29-46 63-48 74-3 12-3 3-1-19l3-40 29-25c30-26 63-79 61-102l-1-13-5 13c-8 21-21 13-28-19l-7-31 13-13c8-6 35-24 60-38l47-27 46 41 46 41v-12c0-6-12-22-27-36-16-14-28-31-28-37v-12l-17 1-17 2 9-18c6-11 10-24 10-31v-13l-16 20-16 19 16-27 16-27v-57l-16-22-15-22-22 1h-22l19 8 19 7 1 46 1 47-16-15-16-14-6 7c-4 3-7 10-7 15v9l11-7 12-7-5 14-5 14-28 3-28 4 8-19c5-10 10-34 13-54l4-37-11-21-11-20 23-16c31-20 47-56 47-106v-40l-25-25-25-25-37 3-37 3-31 41-31 40-17-22-17-22-31-7c-40-9-49 2-13 15 39 15 64 39 64 61v18l-32 17c-18 9-41 23-50 32-31 26-20 4 20-40l37-43-25 16c-14 9-35 30-47 48l-21 32-7 62-7 63 9 45 9 44 17 3 18 4-7-29-7-28 22 19c11 11 21 22 21 25s-16 16-35 29l-36 23-11 24c-6 14-15 25-20 25h-8v-62l-31-29-31-29 5 14 6 14-25 5-25 4-10-19-10-19 10-31c14-41 7-47-9-9l-12 30 10 29 10 28-13 25-14 25-2 66-3 66-7-4c-4-2-12 17-18 42l-12 46-14-12-15-12v10c0 6 4 14 10 17l9 6-6 31-6 31 16 9c10 5 17 15 17 23s18 35 40 60c46 53 70 96 69 122v18l-17-42c-9-22-26-50-36-62l-19-21h-38l5-9c7-11-20-76-31-75-4 1-18-3-30-9l-23-10-26 12-26 12 4 54 5 55h-55l-13 18-14 17 15-12c8-6 29-13 45-15l30-3 28 38c32 43 29 63-4 28-12-12-23-20-26-17-6 6 4 21 62 99 19 26 31 47 27 47-5 0-15-11-22-25-7-13-16-23-19-21-3 3-17-2-31-10l-25-13 20-1 20-1-35-13c-38-13-53-11-30 5l15 11-25-7c-14-3-34-8-45-9-11-2-22-5-25-6s-16-1-30 0l-25 2-22 21-23 20 1 26 1 26 5-20c3-11 9-24 15-30l9-10-7 29-7 29 12-7 11-7-2 12-3 12 25 7 25 6-22 12-23 13v36l20 18 20 18-24 21c-13 12-26 28-29 37l-5 17 11 13 12 13-18-14-19-14 6-28c7-33 1-36-14-7l-11 20 16 25 15 24h29l12-21 11-22-13-8-14-9h25v-14c0-8 4-18 10-21l9-6 16 38 16 37-23 18-23 17 18 7 18 7-23 11-23 12 1 22 1 22-8-6c-5-3-9-15-10-27l-1-22-9 25-8 25 2-25 2-25 13-1c6-1 18-2 25-3l12-2-18-10-18-11-15 12-14 12v56l15 12 14 12 59-21c73-26 83-26 135 0 54 27 77 48 77 68l-1 16-9-16c-5-9-21-24-34-33l-25-16-7 12-7 11 14-8 14-8-8 8c-11 12-37 15-37 4v-9l-25 2-25 2-1 16c-1 8-1 21 0 28 1 8-3 20-10 28-6 8-9 17-6 21 4 3 12-7 19-22l12-27 9 28c4 16 11 65 15 110l7 81-17-5-18-4-1-22-1-21-5 18-5 18 12 14c7 8 21 15 31 15 11 0 19 3 19 8 0 4 3 16 6 28l5 21h-27v-20l1-20-13-3-13-3 10 5 10 5-9 27c-5 15-11 65-14 112l-5 86 9 14 9 14 26-12 26-12 19-42 19-43v38l1 37-11 18-12 19 11 89 11 90 17 36 17 36 22 10 23 10 10-10 10-10 27 18 28 18-14 4c-8 3-26 16-41 30l-28 26v-34h-20v28c0 15 10 47 21 72l20 44 44 43 45 43 82 40 82 40h57c31 0 70 3 87 6l31 6-6 15-6 15 27-17 26-18 47 6zm302-97c-2-2-13 8-23 22l-19 27 24-22c12-12 21-24 18-27zm-909-7 11-20-6-30c-8-35-18-37-32-6l-10 22 9 28c12 32 14 33 28 6zm1080-18c14-10 35-33 48-51l22-33v-87l20-20c11-11 25-20 31-20h11l-12 15c-18 21-9 19 27-7 28-22 33-27 33-45 0-5 7-17 15-27l14-19 20 24 20 24 1-11c0-6-20-33-45-60l-45-49 6 19 7 19-52-29c-29-16-61-37-72-47l-19-18v10c0 5 18 24 40 41l40 32-1 21-1 22-7-25-7-25-27-13-28-14-25 16c-28 19-31 10-7-24l17-25-16 13c-9 7-24 29-33 48l-16 34 7 12 7 11-12-7-12-8 7-20 6-21-11 7-11 7v-40c0-68 36-132 86-151l21-8v-16c0-20-1-20-37-1l-30 16v-13c0-7 7-26 15-42 20-39 18-46-5-17l-20 23v66l-14 12c-8 6-23 32-32 56l-17 44 6 52 6 52 33 40 33 41-45-37c-24-21-48-38-54-38h-10l10 9c5 5 29 25 52 45l44 36h50l-12 15-12 15h-47l-37-45-37-44-9 5-8 5v-48l-1-48-14 25-15 25 6-55 5-55-20-32-21-33h-14c-8 0-17 4-21 9l-5 10 26 26 26 26-7 37c-4 20-8 53-9 72l-1 35 13 35c7 19 21 44 30 55 9 12 3 6-15-13-17-18-41-52-53-75l-21-42 5 37 5 38 33 46 32 45 2 23 1 23 29 39 29 39-46-37c-41-34-106-69-126-68-4 1 3 8 17 16l25 15-18-5c-11-4-31-9-45-12l-27-5 29 16 28 17 21-6 20-5 54 49 53 49 23 4c32 6 69-3 97-22zm-1250-6 10-25-12-25c-15-33-25-32-33 4l-6 30 11 20c14 27 18 26 30-4zm1404 0 6-25-6-25c-3-14-9-25-13-25s-13 11-19 25l-12 25 12 25c6 14 15 25 19 25s10-11 13-25zm-411-110c26 0 47-1 47-2s-9-7-21-14l-21-11-68-3-68-3-19 21c-10 11-13 17-6 14l12-7 6 11 7 10 42-8c22-4 62-8 89-8zm-135-94 30-21h77l-15-10c-8-5-28-10-44-10h-29l-39 40-38 41v22l1 22 13-31 14-31 30-22zm17 53 16 6-6-10-6-9 26-7c15-4 44-4 65-1l39 5-26-24-26-24h-19c-45 0-118 52-118 84v9l20-18 19-17 16 6zm-910 6 26-10 15-36c8-20 13-39 10-42s-6 0-6 6-12 24-26 41l-26 31h-21c-12-1-33-7-47-14l-24-14 49-31c27-17 58-31 69-31h19l-7-7c-3-4-12-8-19-9s-25-9-42-18l-30-16 23-6c12-4 22-10 22-15v-8l-14 5-14 5 1-18 2-18-38-18-37-19-46 27-45 26 7 22c3 12 13 32 21 45l14 23-12 15c-15 19-22 18-37-6l-12-20 12 2c7 2 16 7 20 13l7 9 7-7 8-8-23-22-22-22 6 16 6 16-23-2c-13-1-24-3-26-4-2 0 6-15 18-31 12-17 20-36 18-42l-4-12-32 48c-33 49-39 66-22 66 6 0 10-7 10-15v-15l42 42 42 42 8-20c5-11 18-25 28-32l19-12-5 13c-2 7-1 24 4 37l9 23 44 18c24 10 45 18 46 18 1 1 13-3 28-9zm20-69c-3-3-12-6-20-7l-15-2 5 7c2 4 11 8 20 8 8 0 13-3 10-6zm1001-36c-19-15-46-20-46-10 0 6 40 24 55 24 6 0 1-6-9-14zm-1426-66c0-4-5-20-11-36l-11-28-15 29-15 29 13 24 13 24 13-17c7-10 13-21 13-25zm2076-36-14-28-13 28-12 27 12 27 13 28 14-28 15-27-15-27zm-726-3c0-5-4-10-10-10-5 0-10 5-10 10 0 6 5 10 10 10 6 0 10-4 10-10zm-1075-43c11-11 15-17 9-13l-12 6-4-18-5-19 13-17 12-17 5 18 5 18 1-16c0-8-6-24-14-35l-15-19 6 17 6 17-33-4c-34-5-52-15-28-16h14l-20-8-20-8-23 18-23 18-17-6-16-7 26-7c15-4 32-10 38-14l12-7-12-8-12-7h81l35-34 36-33 17-44 17-44-11-17-11-17 14-25c21-38 16-47-7-11-26 39-35 42-15 4l15-28-21-13c-11-7-17-15-14-18 3-4 1-12-5-19l-10-12 10-7 11-6-10-19c-6-11-15-29-21-41l-10-20 38 25c60 41 62 30 2-15l-54-41 3-10 2-9-9 5-10 6-64-62c-35-35-76-79-90-98-15-19-27-32-27-28s28 43 63 86l63 78-35-1c-20 0-50 3-68 9l-32 9-4 16-3 16-17-45-17-45 4 35 5 35-11-21-10-22-29 11c-15 6-30 9-33 7-9-9-36-160-36-199v-40l9-5 9-6-5 22-5 23 10-14 10-14 12 23 12 22-11 62c-17 95-12 91 15-12 25-96 57-169 93-212l20-25 1 12v11l36 12 36 12 33-5c18-3 45-13 60-23l26-17 20-38 19-38v-85l-20-41c-11-23-32-53-46-66l-27-24 29 43 28 44 4 58 4 57-16 35-16 34-29 17c-16 9-35 17-43 17l-13-1 30-13c32-14 58-40 68-68l6-18-24-6c-14-3-25-10-25-16v-9l-9 6-9 5-15-15c-9-8-18-15-21-15s-16-11-30-25-23-25-21-25c3 0-3-8-12-18l-18-19-25 21-24 21 41-50c45-55 107-113 199-188 32-27 91-84 129-127l70-79 54-88c30-48 86-135 124-193 92-139 61-107-44 45-98 144-228 312-266 346-16 13-22 17-15 9 16-19 15-30-4-30h-16l5-14 6-14-38-9-37-10-23 8-22 9 6-9c3-6 56-48 118-95 61-46 128-101 147-122l35-38-55 46c-30 25-100 78-155 118-132 97-186 149-258 245-96 130-149 256-163 388l-6 62 11 60c7 33 19 101 27 150 8 50 17 99 20 111l5 21-13 1c-7 1-24 3-38 5l-25 4-25-16-25-16 15 20c8 11 36 43 61 72 26 29 66 81 89 115l42 63 12-3c6-2 19-11 29-20l18-16 16 17 16 16-20-5-19-5-12 13-11 14 15 30 15 30 22-1c12 0 28-4 36-9l14-9-8 13-8 13 11-7 11-7-6-14c-3-8-9-15-14-15h-8l6-16 6-16-14-9-14-9h26l-6-10-6-9-13 5-14 5-5-8c-3-4 1-16 8-26l12-17 38 55c36 52 58 69 37 28l-10-18 3-42 2-42-11-4-12-5-1 21c-1 11 2 28 8 39 5 10 8 18 6 18-6 0-57-78-57-86v-7l42 6 42 6 65 33c35 18 66 38 68 44l4 11-42 46-41 47-9-6-10-6 18-14 18-13-12-1h-13v-41l13 7 12 7-8-8c-4-5-14-10-22-11l-15-2v17c0 9 5 22 12 29l12 12h-12c-16 0-15 11 3 34l14 19 18-14 18-14-13 17-14 17 15 21 15 21 5-15 6-15-16-3-16-3 18-15 19-15-9 14-8 14 11-7c7-4 12-13 12-20 0-8 7-19 15-26l15-12v62l-30 32-30 33-10-17c-6-9-22-31-36-48l-26-30-32 5c-17 4-39 7-48 9-10 1-31 14-47 29l-31 27-6 25c-3 14-3 32 0 41l6 15 11-6 11-7-6-24-6-24h19l-5-14-6-14 21-11c29-16 36-13 18 7-9 10-20 33-23 52l-7 33-20 20-20 20 5-14 6-15-24-29c-30-37-30-29-2 29l21 45 36-31c20-18 35-36 33-40-1-4 2-8 8-8h10v41l-9-6-10-5-6 9-6 10 21 21c23 23 50 26 69 8l13-13-11 22-11 22 11 24 11 24 41-3 42-2-43 15-42 15 5 8 6 9 27-11c15-6 36-20 47-31zm1563 25 4-12h-14c-8 0-32-9-53-20l-40-19 30 24c17 13 35 28 40 34 12 12 27 9 33-7zm-1517-29 14-18-17 14c-10 7-18 15-18 17 0 8 8 3 21-13zm1531-18c6-14 16-25 21-25h10l-19-22c-10-13-12-17-4-10 8 6 24 12 35 12h22l17-19 18-20-7-10-6-11h9c5 0 19 11 32 25l24 25 27-42 28-42-6-10-6-9-8 21c-10 26-17 27-41 5l-18-16v15c0 9 7 21 15 28s15 17 15 23v11l-16-22-15-22h-18c-9 0-26-6-36-14l-20-14 26 5 26 5 6-17 7-16-16-25-17-24 19 7 19 7-13-17-14-16 15-15c8-8 17-12 21-9 5 6 10-29 7-49 0-5 3-8 9-8h9l-6-17-6-18 14 13c7 6 16 12 20 12 3 0 26-30 51-67 25-38 73-98 108-135 34-38 57-68 52-68s-15 6-21 14l-12 14-37-11c-45-14-49-18-57-76-3-25-8-60-11-77l-6-31 17-17 17-16 9 5 9 6 1 37c1 43 1 41 24-61l18-79-7-81-7-82-28-82-28-82-49-78-48-77-67-71-68-71-102-75c-56-40-138-102-183-137l-81-64 55 53c30 29 97 83 148 121 95 70 114 90 62 63l-31-16-19 6-20 6v30l-10-6-10-6 6 14 5 15-11 7-11 7 13 16c7 10-3 4-21-13-41-38-129-150-255-328-116-163-149-194-49-46 39 57 101 151 139 209 85 132 137 186 296 317l126 103 34 43 33 42-18-14c-9-7-17-10-17-6s-8 1-17-6l-17-14 7 11 6 11-15 19c-9 10-12 13-8 5l7-14-11 7c-7 4-12 14-12 22v14h-11c-7 0-22 10-34 23-38 37-55 48-64 43l-9-6-5 20-5 20 9 6c5 3 7 9 4 13-6 11 23 37 55 50l25 10h-19l-18 1-35-35-34-34 6-38 5-38-9 20-10 20 6-50c6-55 24-97 57-135l21-25-33 30c-19 17-43 48-54 69l-20 39 4 63 4 63 24 27c50 52 97 64 173 43l39-10-18-22c-10-12-2-7 17 11l36 33 27 54 26 53 20 87c11 47 20 94 20 105v19l-27-3-28-2-12 16-13 15 6-35 5-35-20 45c-11 25-20 40-20 35l-1-11-47-13c-27-7-56-15-66-18l-18-5 23-28c13-16 39-48 58-72l34-43-73 73c-40 40-107 101-150 134-92 73-97 78-47 49 21-12 41-19 44-16s0 5-6 5h-12l4 30 3 30-13 25-13 25 8 4c4 3 35-9 68-26l62-30 45-5 45-6-47 72-47 72-3-17c-4-17 28-97 35-90 3 2 0 15-7 28l-11 23 15-19c9-11 16-28 16-39v-18l-22 7c-31 9-38 22-38 74 0 25-5 52-10 60l-10 15 6-32 7-33-24-1h-24l20-10 20-9-20 3-20 2-3 25-4 24 16-13 16-14 7 7 7 7-11 18-12 19 13 18 13 18 7-22 7-22 9 5 9 6 16-25 17-25 13 12 13 12-3 25-3 25 10 13 11 13-26-10-26-10-6 9c-4 6-10 10-15 10h-9l6-17 6-18-23 20c-12 11-31 39-40 61-10 23-23 45-29 49l-11 6 5 10 6 9h78l-5 15-6 15-22 1h-21l20 9 20 9-15 1c-8 2-21 2-27 1l-13-2-1 18c0 10-2 26-4 36l-3 18 21 9c12 5 28 9 35 9l12 1 12-25zm-1759-30-17-35h-26v14c0 12 44 56 56 56 2 0-4-16-13-35zm1874 13c27-25 29-43 8-52l-15-5v17c0 10-7 28-16 40-19 28-7 28 23 0zM870 2239c0-5-4-9-10-9-5 0-10 7-10 16v15l10-6c6-3 10-10 10-16zm1640-10v-20l-10 6-10 6v-20c0-11-4-23-10-26l-10-6v44l17 19c21 23 23 23 23-3zm-250-6c0-4-12-19-26-34l-26-27-5-43-6-44 38 43c20 23 41 42 46 42h10l-6-10-6-10h32l-46-57c-25-32-53-67-61-78s-22-29-30-40l-15-20 22 42c12 23 39 65 61 95l39 53-38-40c-21-22-46-51-56-65l-17-25 13 30 14 30-5 43-4 43 27 39c25 36 45 51 45 33zm14-38 5-15h-28l5 15c4 8 7 15 9 15s5-7 9-15zm-1829-36 7-20-6-25c-8-30-20-31-33-1l-10 22 10 23c13 28 24 28 32 1zm2162-1 10-23-10-22c-6-13-13-23-17-23s-11 10-17 23l-10 22 10 23c6 12 13 22 17 22s11-10 17-22zm-365-10-12-12v10c0 6 3 14 7 17 3 4 9 5 12 2 2-3-1-11-7-17zM750 2025c-7-8-18-15-24-15l-11 1 18 10 17 10 1 22 1 22 5-18 5-18-12-14zm234-111c9-8 16-23 15-32v-17l-9 23c-10 22-30 31-30 11v-10l-10 6-10 6v-49l13-5 12-5-17-1-18-1-6 27-7 26 23 19c27 22 25 22 44 2zm-36-109c16-35 15-43-3-19l-14 19 6-22 5-23-17-6-17-7-8 13-8 13-4-19-5-19-8 29-8 29 23 19c12 10 28 18 35 18h12l11-25zm1679-67-5-13-1 19c-1 11 2 17 5 13 3-3 4-12 1-19zm10-50-5-13v50l5-12c2-7 2-19 0-25zm-1887-62c0-3-4-8-10-11l-10-6v10c0 6 5 11 10 11 6 0 10-2 10-4zm1530-6c0-5-4-10-10-10-5 0-10 5-10 10 0 6 5 10 10 10 6 0 10-4 10-10zm-1640-20 11-21-6-19c-8-26-22-25-30 0l-6 20 6 20c8 25 12 25 25 0zm1780-20c0-3-6-15-14-25l-13-19-12 22-12 22 12 22 12 22 13-19c8-10 14-22 14-25zM1001 999l-10-24v17c-1 9 2 24 6 34l7 18 3-10c2-6-1-22-6-35zm1065-44c-11-8-29-15-40-14h-21l35 13c46 18 48 18 26 1zm-939-47-5-13v50l5-12c2-7 2-19 0-25zM827 574l-15-28-16 31-16 31 17 39 16 38 14-42 14-42-14-27zm1380 2-14-31-17 33-17 32 17 33 17 32 15-35 14-34-15-30zm-986-183 14-18-17 14c-10 7-18 15-18 17 0 8 8 3 21-13zm525-251-14-27-12 27-13 27 14 32 13 33 13-32 13-33-14-27zm-451 57 7-20-6-25c-8-29-22-31-36-5l-10 20 12 25c14 31 24 33 33 5zm224-146-12-13-13 11-14 11 12 21 11 21 13-19 14-18-11-14zm26 2828c-48-23-41-27 12-7 21 8 47 17 58 19l20 5-25 1c-14 0-43-8-65-18zm73-18c6-2 18-2 25 0l12 5h-50l13-5zm115-10c9-2 23-2 30 0l12 5h-60l18-5zm4-63c-20-4-40-9-43-13-9-9 80 5 91 14l9 9-9-1c-6-1-27-5-48-9zm-381-25c-3-9-6-22-5-28 0-7 5-1 10 12s8 26 5 28c-2 2-6-3-10-12zm65-46c-6-28-10-54-7-56 2-2 9 19 15 48 6 28 10 54 7 56-2 2-9-19-15-48zm109 49c0-3-7-22-15-42s-13-36-10-36c9 0 37 71 31 78-3 3-6 3-6 0zm-318-113v-30l5 18c2 9 2 23 0 30l-5 12v-30zm-30-187c-7-7-12-22-12-35v-23h18l4 35c2 19 4 35 3 35s-6-5-13-12zm-31-73c0-11 6-28 13-38l14-18 7 12 8 11-10 7c-5 3-15 15-21 26l-11 20v-20zm567-32c7-3 16-2 19 1 4 3-2 6-13 5l-19-1 13-5zm67-83-6-10h15c9 0 16 5 16 10 0 6-4 10-9 10-6 0-13-4-16-10zm-580-20 6-10h-19l2-25 1-25h78l-34-23c-19-13-42-26-51-30-10-3-18-10-18-16 0-14 34-19 60-8 33 13 61 16 83 10l17-4-5-9-5-8 35-6c20-4 34-10 31-14l-4-7h63l10 23c5 12 15 22 21 22h12l-5 20-5 20-13-16-12-17-24 16c-13 10-31 17-40 17-10 0-31 11-47 25-17 14-35 25-42 25h-11l6 10 6 10-8-1c-4-1-14-1-21 0l-13 1 7 12 7 11-12-7-12-8 13-16 13-16-27 19c-15 11-28 23-28 28 0 4-5 7-11 7h-10l6-10zm768-23c-11-12-26-32-32-45l-12-23 12-36 12-36 10 18 10 18-12 18c-14 23-14 49-1 49 6 0 10 7 10 16v15l9-5 9-6 6 16c10 26 1 26-21 1zm-957-5-6-10 7-4c5-1 16-17 25-33l16-30-7-15-8-15 13-40c7-22 13-35 13-30l1 10 9-14 9-14-9-25c-5-14-7-27-4-30s5 0 5 7v12l9-6 10-5 7 11 7 11-14 9c-8 5-10 9-6 9 5 0 1 13-8 28l-17 28 11 38 10 39-8 16c-5 9-20 26-34 39l-25 24-6-10zm684-1c0-5-18-23-40-39l-41-29-49-7c-28-4-50-8-50-10s7-17 15-34l16-31 25 5c15 3 33 11 41 19s21 15 29 15h14v23l43-6c23-2 50-8 60-12l17-7v22h-32l6 15 6 16-30 6-30 5 6 9c3 5 18 9 35 9h29v30h-19c-11 0-23-4-26-10-3-5-10-10-15-10h-9l5 15c4 8 3 15 0 15s-6-4-6-9zm91-5-12-14 11-7 10-6 6 16c9 22-1 29-15 11zm-259-166v-25l5 13c2 6 2 18 0 25l-5 12v-25zm299-4 12-26-6-6-7-7-17 14-18 13 13-14c6-8 12-23 12-34v-20l-15 20-15 19 6-18 6-17-11-14-12-14 10-6 9-6 27 31 26 32-3 35-3 35-13 5-12 4 11-26zm-380-22 1-19 5 13c3 7 2 16-1 19-3 4-6-2-5-13zm119-47v-15l35-35 35-35v-30l55-30c30-17 52-26 49-21l-6 10 31 28c17 16 33 26 36 23 9-10 5 4-11 36-8 18-21 35-27 38l-12 7 7-8 7-8-9-18-10-17 10-4 9-3-8-14-9-14-16 32c-9 17-19 31-22 31s4-16 16-37l21-36-12-7c-6-5-19-6-28-5-9 2-22 4-28 4-7 1-24 18-38 39-14 20-37 52-50 71l-25 34v-16zm-378-25c-6-14-12-30-12-35v-8l10 6c16 10 11-1-7-16l-17-14 7 11 7 11-19 17-19 18-13-24c-6-13-8-20-4-16l7 7 15-14 14-15-7-12-8-13 16 13 16 13 9-16 9-15 17 34 16 35-12 30-12 29-13-26zm194-8-28-36 36 24c36 23 43 33 28 42l-8 5-28-35zm-281 16-6-10-10 5-9 6 6-15c7-19 24-21 24-3v12l9-14 9-13 6 11 7 11-6 10c-8 13-22 13-30 0zm717-35-13-15h15c7 0 16 7 20 15l5 15h-7c-4-1-13-7-20-15zm-584-48c-15-23-24-44-22-47 3-2 9 2 14 10l9 14 6-16 7-17-22-32-23-31-7 11-6 11-19-20-18-20h11c6 0 14 5 17 10 4 6 10 8 14 6 4-3 22 10 40 28 18 19 50 42 72 51 22 10 37 20 34 23-2 2 0 14 6 26l11 21-26-30c-14-16-25-26-26-21v8l-24-16-25-16-7 12-7 11 9-5 9-6 2 39c2 21 2 39 0 39-1-1-14-20-29-43zm158 18-18-14 7-11 8-12-14-9-14-9 33 6 32 7v-24l10 6 10 6v-46l10 15 9 15 11-11 11-11-7-27-6-27-20-10-20-11 7 12 7 12-23-13c-13-7-30-12-37-10l-14 2-24-26c-14-15-28-25-31-22s-15-5-27-19c-11-13-31-26-43-28-11-3-35-12-52-20-45-24-48-20-15 17l29 32-35-31c-19-17-50-36-69-43l-34-11H951l-11-19c-5-11-10-32-10-46v-27l21 23 21 24-8-15c-11-23-46-60-58-60h-10l12 12c7 7 12 19 12 28l-1 15-29-33c-17-18-30-38-30-46v-13l41-18 40-19-16-9c-9-5-20-20-25-33l-10-25-22-9-23-9h31l31-1 28 44 27 43 72 37c39 20 79 36 89 36h18l-6 10-6 10 18 30 17 30 19 6c10 3 21 3 24 0 4-3 25 10 49 29l42 35 4-11 3-10 44 31c23 17 50 33 59 35 10 2 31 8 47 14l30 9-27 1-28 1v20h129l6-9 5-10-20-3-20-3 40-22 40-21-7 11-7 12 20-14c10-8 32-26 48-40l29-26-6 23c-3 12-3 22-1 22s22-16 44-36l40-37-6 17-7 17 38-25c21-14 41-26 45-26 10 0 43-50 37-57-3-2-16 0-29 7l-23 11 19-15 20-16h33c18 0 56-9 85-20s59-20 67-20h14l-7 8c-4 4-11 7-14 8-4 0-16 4-27 8-45 17-50 19-57 21-5 2-11 4-15 5-5 1-11 2-15 1-11-1-71 59-65 66 4 3 13 0 22-7 8-7 15-9 15-5s7 1 17-6c9-8 18-12 20-11 3 2 8 0 11-4 4-4 1-4-7 1l-14 8 7-11 7-11 15 6 15 6 15-19c9-11 13-14 10-7l-6 11 16 16 16 17-6 14c-8 21 4 19 31-7l23-21v21c0 12 1 25 2 30l1 7-107 11-107 11-29 21c-35 26-47 28-29 5l14-18-27 18c-15 9-33 17-39 17-7 0-27 11-46 26l-33 25v-10c0-6-18 9-40 31l-40 42v-26l-15 12-15 12-15-6-15-5-15 22-14 22 5 22c4 12 16 28 28 36l21 14 26-1 26-2-1 15c-1 20-27 51-43 51-7 0-17-9-23-20l-11-20h-65l-17 20c-20 23-26 24-51 5zm-277-390c-36-27-51-25-26 3l16 18 22 1 21 2-33-24zm-159-49c0-2-13-9-30-15l-30-10v9c0 5 8 11 18 13 24 7 42 8 42 3zm840 304c6-11 16-20 22-20h11l-18 20c-10 11-20 20-22 20s1-9 7-20zm48-17c7-3 16-2 19 1 4 3-2 6-13 5l-19-1 13-5zm65-6c4-10 7-22 7-26 0-6 63-41 75-41 3 0-3 8-12 18-10 11-21 17-25 15-3-2-16 9-29 24l-22 28 6-18zm-693-7-15-10h12c6 0 15 5 18 10 8 12 4 12-15 0zm-290-69c0-10 39-36 45-29 2 2-8 11-21 21l-24 18v-10zm1027-12c7-7 15-10 18-7s-2 9-12 12l-18 7 12-12zm-1002-39c11-5 31-9 45-9l25-1-15 10c-8 5-28 9-45 9h-30l20-9zm-40-10c11-5 25-9 30-9l10-1-15 10c-8 5-22 9-30 9h-15l20-9zm135 0-15-10h10c6 0 17 5 25 10l15 10h-10c-5 0-17-5-25-10zm419-23-16-32-18 2-17 1-20-34-20-34-9 6-9 5v-23c0-13-10-41-21-63l-21-40 25 24 26 24 6 29 7 29 55 53 55 53-3 16-4 15-16-31zm33-11-2-30-27-30-28-31 22 18 21 18 7-11 7-11-22-24-22-24 21 6 22 6 14-19 13-19-5 30-6 30 36-51c19-28 37-59 40-70l5-19 1 21 1 20-30 40c-16 21-30 46-30 55s-7 22-14 29l-15 12-4 41-4 42-1-29zm36 9c6-11 20-29 31-39 12-11 31-35 42-53 12-19 23-32 26-29 7 7-36 86-48 86-5 0-21 12-35 28l-25 27 9-20zm492-79c0-2 8-10 18-17l17-14-14 18c-13 16-21 21-21 13zm80-23c13-18 26-30 29-28 3 3-8 18-23 33l-29 27 23-32zm-448-28-2-30-11 15-11 15 5-16c3-9 8-41 12-73l7-57 23-33 22-33-18-12c-11-6-19-10-19-9 0 2-7 21-15 43l-14 40-1-25c0-14 8-42 19-62l18-37 26 40 26 39-18 10c-27 14-34 36-41 130-4 47-7 72-8 55zm-357-31-18-35-9 13-8 13v-16c0-9-9-24-20-34s-20-22-20-28v-9l15 6 15 5-6-23-6-24 11-6 11-7-7 17-6 17 11-7 12-7v-38c0-21-5-52-11-69l-10-30-41-29-41-28-14-33-14-33 15-32 15-32-4-30c-2-16-2-32 1-37 9-14 32 3 38 28l7 25-21 29c-11 15-20 36-20 47v18l10-15 10-15v46l11-7 11-7-7 23-7 23 10-7 11-6 3 21 3 22 18 3 19 2-7-16c-4-9-9-32-12-51l-6-34 10 6 10 7 6 46 5 46 20 20 20 20 12-22 12-22-15-16c-8-9-17-24-21-32s2-2 14 13l22 28 14-12 14-11v9c0 5-16 31-36 56l-36 47-5 43-5 44 22 72c26 80 24 98-5 45zm-100-484-7-12-9 13c-4 7-5 17-2 22l5 9 10-10 10-10-7-12zm661 485c14-14 28-25 31-25 4 0-4 11-17 25s-27 25-31 25c-5 0 3-11 17-25zm48-2 16-33 30-15c17-9 30-14 30-12 0 1-21 23-46 47l-46 45 16-32zm-859-14c-11-17 1-21 15-4l12 15h-10c-6 0-14-5-17-11zm337-24-38-34 7-62 7-61 12-12 11-11-10 28c-6 16-11 41-11 56v28l28 39c55 76 53 83-6 29zm583 15c10-11 20-20 23-20s-3 9-13 20-20 20-23 20 3-9 13-20zm104 7 9-9 23 4 24 4-33 5-33 6 10-10zm-639-27c-7-17-10-33-8-36 3-3 11 9 17 27s9 34 7 36-9-10-16-27zm104-18 4-44 17-18c9-10 20-31 25-46l8-29-1 47c-1 26-4 45-7 42s-15 16-28 43l-23 48 5-43zm-400 2-19-15 25 12c31 14 36 19 24 19-6 0-19-7-30-16zm549-4 2-25 10 2c6 1 17-4 25-10l15-11-12 14c-7 8-13 18-13 23v8l13-7 12-8-14 17c-14 18-22 22-20 10 1-5 0-15-1-23l-2-15-9 25-8 25 2-25zm110-48 47-51 1-23c2-45-3-63-28-96l-25-33 19-59 18-60 12-4 12-5-9 25c-6 14-10 30-10 35v10l9-5c5-3 12-23 16-43l7-38 8 20 9 20v-19c1-11 3-17 6-14s2 19-1 36l-6 32h-13c-6 0-17 10-23 23l-12 22 4 20c3 11 5 23 5 28 1 8 71-67 71-77v-7l-12 7c-7 5-3-5 10-20l22-29v-48l9 5 9 6-3 25-2 25h17v48l-37 23c-21 13-41 23-45 23-9 1-37 38-38 50v8l16-13 16-13-7 40c-4 21-11 54-15 72-10 38-5 40 27 10l24-22 24-1c13-1 31-7 39-14l16-13v10c0 5-7 15-15 22l-15 12-15-6-16-6-5 15c-4 8-12 15-19 15-8 0-17 5-21 11l-7 12 24-5c13-3 34-3 46 1l23 6-37 25-36 25-71 4-71 4 48-51zm85 21c-10-2-26-2-35 0l-18 5h70l-17-5zm-11-325-5-13-1 19c-1 11 2 17 5 13 3-3 4-12 1-19zm-873 326-19-15 25 12c31 14 36 19 24 19-6 0-19-7-30-16zm1039-1c9-11 14-22 11-25s-1-8 3-11l9-6 1 20 2 19-22 11-22 12 18-20zm-631-28c-3-53 12-100 44-147l27-38 5-75 5-75h-11c-15 0-52-63-52-90 0-12 7-34 14-48 16-30 56-122 56-129 0-3-7 0-15 7s-15 9-15 5c0-5-8-1-17 7-36 30-47 31-15 1l32-31v-48l35-70 35-69v-61l-12-12c-7-7-20-12-30-12-27 0-22-12 24-69l42-51h56l16 25 16 25-6 35-7 34-25 31c-14 16-32 30-40 30h-15l21 22 20 22v25c0 14-5 33-10 41l-10 15v-35l-1-35-17 31c-9 17-25 43-36 58l-18 26-4 43c-4 53-18 102-40 136l-17 26 28-25 28-25-27 50c-28 50-24 48 26-16l28-34v12c0 6-11 25-25 41l-25 30 1 18v19l9-20c8-20 70-84 70-73 0 3-11 30-24 59l-23 54-7 100c-8 112-19 158-47 186l-19 19-1 28v27l-9-20-8-20-4 40-5 40-1-40zm98-375c6-11 8-20 6-20-3 0-10 9-16 20s-8 20-6 20c3 0 10-9 16-20zm-337 383c-3-7-8-11-13-8-4 2-18-8-31-23l-24-27 28 24 27 24v-14c0-8-4-30-10-48-14-51-3-50 20 1l20 46 15 6c8 3 15 12 15 20v15l-21-2-21-1-5-13zm536-17c26-28 31-31 31-17 0 5-12 17-27 26l-28 18 24-27zm-171-21-18-24v-79l13-11 13-11-4 28-4 28 16 13c18 15 20 8 6-19l-10-19 9-6 10-5 5 18c7 21-2 93-12 104l-7 6-17-23zm22-14c0-5-7-14-15-21l-15-12v14c0 8 3 18 7 21 9 10 23 9 23-2zm-64 13c-3-9-6-23-6-32l1-17 14 25c8 14 14 28 15 33 0 13-18 7-24-9zm584 12c0-2 8-10 18-17l17-14-14 18c-13 16-21 21-21 13zm-274-32 17-30-8-30-9-29-4 35c-2 19-7 39-11 43l-8 8 7-45 7-45-9-15-9-16h8c5 0 16 13 26 29l17 29v59l-21 19-21 19 18-31zm-628-43-26-40 12 5c14 5 50 63 44 70-3 2-16-14-30-35zm716 20c9-10 13-20 10-23s0-9 7-14l12-7-8 13-8 13 12-8 13-7-5-27-5-26 41-38 41-38 16 3 15 3v59h-35l-35 1-3 32-3 31 19-5 20-5 6 10 6 10h-23c-13 0-42 9-66 20l-44 21 17-18zm66-96 12-15h-10c-5 0-12 7-16 15-3 8-4 15-2 15s9-7 16-15zm151 99 1-19 5 13c3 7 2 16-1 19-3 4-6-2-5-13zm-377-18c-29-29-44-59-44-91v-26l10 6c6 3 10 17 10 29v23l25 38c30 43 29 52-1 21zm-653-12 1-19 5 13c3 7 2 16-1 19-3 4-6-2-5-13zm298-17c19-20 36-37 38-37 1 0-3 11-9 25s-14 23-16 20c-3-3-15 3-26 12-12 10-5 1 13-20zm381-15c-21-42-22-42-16-42 8 0 38 61 33 66-2 2-10-8-17-24zm-714 1-7-18 12 12c7 7 10 15 7 18s-9-2-12-12zm546-4-23-9 3-25c2-14 7-27 12-28l9-2 13 38c7 20 12 37 11 36-1 0-12-4-25-10zm-505-6c-4-3-7-11-7-17v-10l12 12c6 6 9 14 7 17-3 3-9 2-12-2zm-53-37c-9-15-14-29-12-32 3-2 13 7 22 22 10 14 15 28 13 31-3 2-13-7-23-21zm487-11 1-40 10 28 10 29-11 11-11 11 1-39zm-435-21c-4-9-4-19-1-22 6-6 35 18 35 29 0 16-28 10-34-7zm292 10c-5-4-8-30-8-58l1-51 10 18 10 17-3 41-3 41-7-8zm37-24c9-16 18-30 21-30 2 0-2 14-11 30-9 17-18 30-21 30-2 0 2-13 11-30zm285 5-13-15 17-19c9-10 22-18 30-18h14l-5 15-6 14-7-13-8-12-10 20-11 20 11 11c7 7 9 12 6 12s-11-7-18-15zm80-16c0-4 7-22 15-40l14-34v15c0 14-28 72-29 59zm-522-45-6-9 13-30 13-30v20c1 11-3 29-7 39l-8 20-5-10zm168-20c-3-9-4-20-1-25l6-8-16-25c-9-13-19-46-24-73l-7-50h26l-6 23-6 23 26 55c26 55 33 96 17 96-5 0-12-7-15-16zm225 0 1-19 5 13c3 7 2 16-1 19-3 4-6-2-5-13zm-510-20 1-19 5 13c3 7 2 16-1 19-3 4-6-2-5-13zm177 1c-3-11-9-29-14-39l-7-19 13 8 13 8-7-19c-5-10-15-47-24-81l-15-62-13 17-13 17-1-14c0-7 5-31 11-52l12-37 13 5 14 5v27c1 29 33 195 45 226l7 20-10-14-10-14-4 19-4 19-6-20zm-96-58c-7-24-11-49-9-57s2-12 0-7c-3 4-9 7-14 7h-9l1-47v-48l8 20c5 11 6 27 4 35l-5 15 9-13 9-12 22 30 22 29v23c-1 13-6 33-13 45l-13 23-12-43zm478 28c0-2 8-23 19-47 22-52 47-76 89-84l31-6-4 23-5 23 13 8 12 8-15 10-15 10-50 1c-27 0-45 3-39 5l12 5-5 19-5 18-19 5c-10 3-19 4-19 2zm-35-15c3-5 8-10 11-10 2 0 4 5 4 10 0 6-5 10-11 10h-10l6-10zm156-3c2-1 15-11 29-22l25-20-19 23c-11 12-24 22-29 22-6 0-8-1-6-3zm-551-42c0-10-13-39-29-64s-33-58-36-72l-7-27 14-8c7-5 19-9 26-10l12-2-6 9c-3 5-10 23-14 40l-9 31 26 26c15 15 26 28 25 30-1 1 1 14 4 28 4 13 4 28 0 31-3 4-6-2-6-12zm140-99c0-2 7-7 16-10l15-6-6 10c-6 10-25 14-25 6zm91-12 1-19 5 13c3 7 2 16-1 19-3 4-6-2-5-13zm-161-1c0-6 8-17 18-24l17-14-15 20c-8 11-16 22-17 24-2 2-3 0-3-6zm171-40-1-23 35-39 36-39 19 5 20 5-6 10-6 9-13-5-13-4-25 26c-14 15-30 38-36 52l-10 25v-22zm19 11c0-17 40-64 53-63l12 1-13 5c-8 3-22 19-33 37-10 17-19 26-19 20zm35-14-6-9 37-16c21-8 42-14 47-12l10 3-37 22c-43 25-43 25-51 12zm-137-94-5-26h8c4 0 11 4 14 10l6 10-9 16-9 16-5-26zm-23-6c-4-6-9-35-12-66l-6-55-8 13c-15 22-10-1 6-32 9-17 19-30 24-30h9l-5 48-4 47 11-18 11-17-6-19-5-18 21-26c11-15 25-27 30-27h9v39l-20 11-20 11 1 22v22l8-19 8-20 6 17 6 16-15 11-14 12v-8c0-5-7 4-16 21l-15 30 4 22c5 25 2 29-8 13zm61-57c7-28 34-67 41-59 6 6-24 73-36 81l-12 7 7-29zm225-19 1-19 5 13c3 7 2 16-1 19-3 4-6-2-5-13zm-187-89v-34l8 5c4 3 8 16 8 29s-4 26-8 29l-8 5v-34zm555 2273c-21-23-37-43-35-45 1-1 18 2 37 7l34 10 26-5 27-6 41-35 41-36v19c0 10-9 37-19 59l-19 41-23 17c-13 9-34 16-47 16h-24l-39-42zm0-125-14-18 18 14c9 7 17 15 17 17 0 8-8 3-21-13zm115-59-19-15 20 9c11 5 27 12 35 15l15 5-16 1c-8 1-24-6-35-15zm26-24-15-10 10 1c6 0 19 4 30 9l20 9h-15c-8 0-22-4-30-9zm60 6c0-2 6-9 14-15l14-12 6 16 5 15h-19c-11 0-20-2-20-4zm60-40v-36h20v59l-10 6-10 6v-35zm-108 12-23-11 3-14c2-8 7-13 13-11 5 2 9 9 7 16l-3 12h66l-15 10c-18 12-19 12-48-2zm89-4 1-19 5 13c3 7 2 16-1 19-3 4-6-2-5-13zm54-25c-4-6-5-12-2-15 2-3 7 2 10 11 7 17 1 20-8 4zM635 2260l-6-10h10c6 0 11 5 11 10 0 6-2 10-4 10-3 0-8-4-11-10zm39-18-10-7 18-17 18-18v13c0 6-4 17-8 24l-8 12-10-7zm44-25 5-30 14 18c16 23 13 37-8 40l-15 3 4-31zm-128 2v-10l10 6c6 3 10 8 10 11 0 2-4 4-10 4-5 0-10-5-10-11zm14-34c21-16 32-13 21 4-3 6-14 11-23 11l-17-1 19-14zm63-11 6-16-14 2c-25 4-39 0-39-10v-10h37l16 18 17 19-7 6c-3 4-10 7-14 7h-8l6-16zm17-26-19-23 23 19c21 18 27 26 19 26-2 0-12-10-23-22zm-311-748v-45l4 23c2 12 2 32 0 45l-4 22v-45zm8-76 1-19 5 13c3 7 2 16-1 19-3 4-6-2-5-13zm234-414c21-22 41-40 44-40s-13 18-34 40-41 40-44 40 13-18 34-40zm1748 1392c-10-9-13-13-6-8l13 8 25-6c30-8 33-1 6 14l-19 10-19-18zm33-30-5-8 20-1 19-2-5 10c-7 11-22 12-29 1zm-116-29c0-5 7-17 15-27l15-20v11c0 19-12 43-21 43-5 0-9-3-9-7zm44-27-7-28 14-9c18-11 27 0 9 12l-15 9 12 8 12 8-9 14-9 14-7-28zm70-24 16-16 11 11 10 10-26 5-27 6 16-16zm-84-26c0-2 7-9 15-16l15-12v10c0 5-7 12-15 16-8 3-15 4-15 2zm44-7-5-9 15-6 15-6 17 10 16 9-26 5-26 5-6-8zm41-119-6-10 31-45c30-44 52-64 28-25l-12 19 24 26 25 27-26-7-26-6-6 15c-7 18-23 21-32 6zm-55-59c0-6 4-13 10-16l10-6-6 15c-7 18-14 21-14 7zm312-441v-25l5 13c2 6 2 18 0 25l-5 12v-25zm-1-106 1-19 5 13c3 7 2 16-1 19-3 4-6-2-5-13zm0-40 1-19 5 13c3 7 2 16-1 19-3 4-6-2-5-13zm-231-461-55-58 58 55c31 30 57 56 57 57 0 8-10-1-60-54zm-91-80-14-18 18 14c16 13 21 21 13 21-2 0-10-8-17-17z" />
    </g>
  </g>
</svg>